<?xml version="1.0" standalone="no"?>
<!DOCTYPE svg PUBLIC "-//W3C//DTD SVG 1.1//EN" "http://www.w3.org/Graphics/SVG/1.1/DTD/svg11.dtd" >
<svg>
<metadata>
Created by FontForge 20090914 at Tue Mar 13 13:05:38 2012
 By ffonts
K22 Ambelyn Condensed is based on Ambelyn Condensed from Condensed Alphabets by Dan X. Solo.

Toto
Ika-18 ng Nobyembre 2010
</metadata>
<defs>
<font id="K22AmbelynCondensed" horiz-adv-x="306" >
  <font-face 
    font-family="K22 Ambelyn Condensed"
    font-weight="400"
    font-stretch="normal"
    units-per-em="1000"
    panose-1="2 0 0 0 0 0 0 0 0 0"
    ascent="800"
    descent="-200"
    x-height="700"
    cap-height="700"
    bbox="0 -135 1188 835"
    underline-thickness="50"
    underline-position="-50"
    unicode-range="U+0020-U+2222"
  />
<missing-glyph horiz-adv-x="0" 
 />
    <glyph glyph-name=".notdef" horiz-adv-x="0" 
 />
    <glyph glyph-name=".null" horiz-adv-x="0" 
 />
    <glyph glyph-name="CR" horiz-adv-x="200" 
 />
    <glyph glyph-name="space" unicode=" " horiz-adv-x="200" 
 />
    <glyph glyph-name="K22" unicode="&#x2222;" horiz-adv-x="1188" 
d="M433 106l-247 243l222 221v-102h172c-2 20 -3 38 -3 53c0 90 35 99 47 99c28 -2 43 -19 43 -52c0 -73 -73 -224 -234 -462zM844 468h154c-2 20 -3 38 -3 53c0 90 35 99 47 99c28 -2 43 -19 43 -52c0 -73 -73 -224 -234 -462h-211c83 128 140 234 204 362zM186 697v-697
h-59v697h59zM105 697v-697h-35v697h35zM49 697v-697h-21v697h21zM1188 106h-134l134 208v-208zM7 697v-697h-7v697h7zM773 697h120c-28 -16 -47 -42 -56 -77c-13 36 -32 56 -64 77z" />
    <glyph glyph-name="parenleft" unicode="(" horiz-adv-x="169" 
d="M160 720c-40 -93 -58 -211 -66 -331c0 -7 12 -31 18 -39c-6 -9 -20 -27 -20 -40c0 -152 23 -297 67 -376c1 -1 1 -3 1 -4c0 -3 -2 -6 -6 -6c-3 0 -7 1 -11 5c-83 71 -125 218 -125 375v4c0 13 -10 33 -16 42c5 8 18 25 19 38c11 134 52 266 128 342c4 4 8 6 11 6
c2 0 3 -1 3 -4s-1 -7 -3 -12z" />
    <glyph glyph-name="period" unicode="." horiz-adv-x="101" 
d="M12 61c0 31 17 57 38 57s38 -26 38 -57s-17 -57 -38 -57s-38 26 -38 57z" />
    <glyph glyph-name="colon" unicode=":" horiz-adv-x="106" 
d="M15 61c0 31 17 57 38 57s38 -26 38 -57s-17 -57 -38 -57s-38 26 -38 57zM15 401c0 31 17 57 38 57s38 -26 38 -57s-17 -57 -38 -57s-38 26 -38 57z" />
    <glyph glyph-name="semicolon" unicode=";" horiz-adv-x="100" 
d="M47 4c-21 0 -38 26 -38 57s17 57 38 57c39 0 40 -60 40 -91c0 -75 -32 -125 -49 -125c-6 0 -9 4 -9 9c0 18 23 56 23 79c0 6 -1 11 -5 14zM9 401c0 31 17 57 38 57s38 -26 38 -57s-17 -57 -38 -57s-38 26 -38 57z" />
    <glyph glyph-name="comma" unicode="," horiz-adv-x="99" 
d="M47 4c-21 0 -38 26 -38 57s17 57 38 57c39 0 40 -60 40 -91c0 -75 -32 -125 -49 -125c-6 0 -9 4 -9 9c0 18 23 56 23 79c0 6 -1 11 -5 14z" />
    <glyph glyph-name="parenright" unicode=")" horiz-adv-x="169" 
d="M9 720c-2 5 -3 9 -3 12s1 4 3 4c3 0 7 -2 11 -6c76 -76 117 -208 128 -342c1 -13 14 -30 19 -38c-6 -9 -16 -29 -16 -42v-4c0 -157 -42 -304 -125 -375c-4 -4 -8 -5 -11 -5c-4 0 -6 3 -6 6c0 1 0 3 1 4c44 79 67 224 67 376c0 13 -14 31 -20 40c6 8 18 32 18 39
c-8 120 -26 238 -66 331z" />
    <glyph glyph-name="hyphen" unicode="-" horiz-adv-x="180" 
d="M10 279v70h160v-70h-160z" />
    <glyph glyph-name="exclam" unicode="!" horiz-adv-x="100" 
d="M60 212c0 -8 -6 -12 -12 -12c-5 0 -11 3 -11 12c-2 85 -5 147 -9 199c0 11 -14 31 -19 39c5 8 12 30 12 41c-6 51 -10 93 -14 142c0 25 16 67 43 67c26 0 43 -37 43 -66c-4 -59 -11 -98 -15 -142c0 -5 5 -34 11 -42c-5 -7 -18 -26 -19 -38c-5 -53 -9 -113 -10 -200zM9 61
c0 31 17 57 38 57s38 -26 38 -57s-17 -57 -38 -57s-38 26 -38 57z" />
    <glyph glyph-name="dollar" unicode="$" horiz-adv-x="235" 
d="M104 -80v71c-52 0 -95 39 -95 128c0 31 17 57 38 57s38 -26 38 -57s-17 -57 -38 -57c0 -26 27 -43 57 -46v271c-12 10 -24 18 -34 31c-9 12 -37 22 -42 32c0 5 0 46 -1 50c-5 24 -9 51 -9 86c0 122 44 188 86 201v14c0 10 6 16 12 16s13 -6 13 -16v-12
c61 -5 79 -63 85 -106c1 -5 2 -9 2 -14c0 -29 -16 -53 -36 -53c-19 0 -35 24 -35 53s16 53 35 53c-2 29 -20 42 -51 43v-268l19 -18c12 -11 51 -21 57 -29c0 -13 -4 -25 -4 -35c0 -6 25 -41 25 -126c0 -118 -43 -180 -97 -194v-75c0 -11 -7 -16 -13 -16s-12 5 -12 16z
M186 124c0 78 -26 114 -57 142v-246c29 15 57 63 57 104zM56 539c0 -58 21 -90 48 -118v237c-28 -16 -48 -63 -48 -119z" />
    <glyph glyph-name="ampersand" unicode="&#x26;" horiz-adv-x="334" 
d="M93 602c9 48 35 107 90 107c42 0 66 -68 68 -108c0 -13 3 -34 9 -43c-5 -7 -14 -21 -20 -34c-15 -46 -45 -74 -74 -102c17 -93 41 -194 65 -264c16 61 25 126 25 136c0 24 -38 45 -38 54c0 2 0 15 6 15h95c6 0 6 -13 6 -15c0 -9 -35 -23 -43 -58
c-10 -43 -18 -110 -37 -171c13 -31 25 -50 35 -50c11 0 18 23 23 64c1 8 5 11 10 11c6 0 12 -5 12 -12c-10 -58 -3 -132 -76 -132c-16 0 -31 12 -45 33c-20 -26 -47 -42 -81 -42c-64 0 -91 93 -96 156c-4 12 -14 28 -19 36c5 7 17 25 21 38c9 82 41 124 75 162
c-7 48 -12 93 -14 135c-2 13 -15 31 -20 40c6 9 20 26 23 44zM109 351c-12 -23 -19 -50 -19 -86c0 -59 16 -215 74 -215c8 0 16 4 23 11c-34 68 -61 183 -78 290zM208 615c0 29 -1 60 -25 60c-26 0 -36 -32 -36 -79c0 -38 5 -91 15 -148c26 37 46 84 46 167z" />
    <glyph glyph-name="question" unicode="?" horiz-adv-x="184" 
d="M10 590v4c0 78 38 115 77 115c44 0 90 -46 90 -128c0 -63 -9 -61 -9 -83c0 -13 2 -30 5 -38c-6 -9 -38 -30 -44 -43c-19 -40 -37 -91 -37 -199c0 -7 -6 -10 -11 -10c-6 0 -11 3 -11 10c0 90 9 150 18 206c0 13 -3 28 -4 36c5 7 17 24 20 37c2 9 4 31 4 57
c0 52 -7 117 -31 117c-8 0 -27 -4 -29 -24c21 0 38 -26 38 -57s-17 -57 -38 -57s-38 26 -38 57zM43 61c0 31 17 57 38 57s38 -26 38 -57s-17 -57 -38 -57s-38 26 -38 57z" />
    <glyph glyph-name="quotesingle" unicode="'" horiz-adv-x="90" 
d="M46 583c-21 0 -38 26 -38 57s17 57 38 57c39 0 40 -60 40 -91c0 -75 -52 -175 -69 -175c-6 0 -9 4 -9 9c0 14 43 82 43 129c0 6 -1 11 -5 14z" />
    <glyph glyph-name="quotedbl" unicode="&#x22;" horiz-adv-x="184" 
d="M47 583c-21 0 -38 26 -38 57s17 57 38 57c39 0 40 -60 40 -91c0 -75 -52 -175 -69 -175c-6 0 -9 4 -9 9c0 14 43 82 43 129c0 6 -1 11 -5 14zM137 583c-21 0 -38 26 -38 57s17 57 38 57c39 0 40 -60 40 -91c0 -75 -52 -175 -69 -175c-6 0 -9 4 -9 9c0 14 43 82 43 129
c0 6 -1 11 -5 14z" />
    <glyph glyph-name="quotedblright" unicode="&#x201d;" horiz-adv-x="184" 
d="M47 583c-21 0 -38 26 -38 57s17 57 38 57c39 0 40 -60 40 -91c0 -75 -52 -175 -69 -175c-6 0 -9 4 -9 9c0 14 43 82 43 129c0 6 -1 11 -5 14zM137 583c-21 0 -38 26 -38 57s17 57 38 57c39 0 40 -60 40 -91c0 -75 -52 -175 -69 -175c-6 0 -9 4 -9 9c0 14 43 82 43 129
c0 6 -1 11 -5 14z" />
    <glyph glyph-name="quotedblleft" unicode="&#x201c;" horiz-adv-x="184" 
d="M137 545c21 0 38 -26 38 -57s-17 -57 -38 -57c-39 0 -40 60 -40 91c0 75 52 175 69 175c6 0 9 -4 9 -9c0 -14 -43 -82 -43 -129c0 -6 1 -11 5 -14zM47 545c21 0 38 -26 38 -57s-17 -57 -38 -57c-39 0 -40 60 -40 91c0 75 52 175 69 175c6 0 9 -4 9 -9
c0 -14 -43 -82 -43 -129c0 -6 1 -11 5 -14z" />
    <glyph glyph-name="quoteright" unicode="&#x2019;" horiz-adv-x="90" 
d="M46 583c-21 0 -38 26 -38 57s17 57 38 57c39 0 40 -60 40 -91c0 -75 -52 -175 -69 -175c-6 0 -9 4 -9 9c0 14 43 82 43 129c0 6 -1 11 -5 14z" />
    <glyph glyph-name="quoteleft" unicode="&#x2018;" horiz-adv-x="90" 
d="M44 545c21 0 38 -26 38 -57s-17 -57 -38 -57c-39 0 -40 60 -40 91c0 75 52 175 69 175c6 0 9 -4 9 -9c0 -14 -43 -82 -43 -129c0 -6 1 -11 5 -14z" />
    <glyph glyph-name="ellipsis" unicode="&#x2026;" horiz-adv-x="270" 
d="M7 61c0 31 17 57 38 57s38 -26 38 -57s-17 -57 -38 -57s-38 26 -38 57zM97 61c0 31 17 57 38 57s38 -26 38 -57s-17 -57 -38 -57s-38 26 -38 57zM187 61c0 31 17 57 38 57s38 -26 38 -57s-17 -57 -38 -57s-38 26 -38 57z" />
    <glyph glyph-name="A" unicode="A" horiz-adv-x="299" 
d="M81 393l46 307c1 5 9 10 17 10s16 -5 17 -10l41 -307c2 -13 16 -34 22 -43c-6 -9 -10 -40 -10 -43l39 -257c3 -21 43 -36 43 -45c0 -2 0 -5 -6 -5h-131c-6 0 -6 3 -6 5c0 9 30 24 30 45l-20 143h-85l-20 -143c6 -20 39 -36 39 -45c0 -2 0 -5 -6 -5h-82c-6 0 -6 3 -6 5
c0 14 30 29 30 45l36 257c0 3 -4 34 -10 43c6 9 20 30 22 43zM122 504l-39 -277h76z" />
    <glyph glyph-name="B" unicode="B" horiz-adv-x="279" 
d="M13 0c-6 0 -6 3 -6 5c0 9 30 24 30 45v257c0 13 -14 34 -20 43c5 8 18 27 20 40v260c0 21 -30 36 -30 45c0 2 0 5 6 5h112c97 0 126 -78 126 -131c0 -13 14 -34 20 -43c-6 -8 -20 -27 -20 -40c0 -28 -28 -99 -85 -124c44 -14 81 -55 87 -134c2 -13 14 -32 20 -40
c-6 -9 -20 -30 -20 -43c-9 -122 -58 -145 -128 -145h-112zM107 25h18c42 0 56 74 56 151c0 85 -13 168 -56 168h-18v-319zM125 675h-18v-296h18c43 0 56 60 56 145c0 77 -14 151 -56 151z" />
    <glyph glyph-name="C" unicode="C" horiz-adv-x="251" 
d="M188 693c6 -5 10 -12 19 -12c8 0 13 9 18 19c2 4 6 6 9 6s8 -2 8 -6v-211c0 -3 -5 -4 -10 -4s-9 1 -9 4c-10 116 -38 195 -71 195c-42 0 -52 -128 -53 -291c0 -13 14 -34 20 -43c-6 -9 -20 -30 -20 -43c1 -164 11 -291 53 -291c47 0 60 74 67 184h23
c0 -117 -26 -209 -90 -209c-71 0 -120 166 -128 319c-2 13 -14 32 -20 40c6 9 20 30 20 43c9 152 58 316 128 316c13 0 25 -6 36 -16z" />
    <glyph glyph-name="D" unicode="D" horiz-adv-x="294" 
d="M8 695c0 2 0 5 6 5h127c75 0 119 -155 128 -307c0 -13 14 -34 20 -43c-6 -8 -18 -27 -20 -40c-8 -153 -52 -310 -128 -310h-127c-6 0 -6 3 -6 5c0 9 30 24 30 45v257c0 13 -14 34 -20 43c6 9 20 30 20 43v257c0 21 -30 36 -30 45zM141 675h-33v-282c0 -13 14 -34 20 -43
c-6 -9 -20 -30 -20 -43v-282h33c42 0 52 118 53 282c0 13 -14 34 -20 43c6 9 20 30 20 43c-1 163 -11 282 -53 282z" />
    <glyph glyph-name="E" unicode="E" horiz-adv-x="247" 
d="M185 490v-97c0 -13 14 -34 20 -43c-6 -9 -20 -30 -20 -43v-97c-1 -4 -5 -7 -9 -7s-8 3 -8 7c0 37 -17 118 -61 125v-285c0 -15 10 -21 21 -21c13 0 28 7 34 18c26 43 58 123 58 162c0 4 4 7 8 7s8 -3 9 -7c0 -107 -1 -157 -1 -204c0 -2 0 -5 -6 -5h-217c-6 0 -6 3 -6 5
c0 9 30 24 30 45v257c0 13 -14 34 -20 43c6 9 20 30 20 43v257c0 21 -30 36 -30 45c0 2 0 5 6 5h217c6 0 6 -3 6 -5c0 -47 1 -75 1 -182c-1 -4 -5 -7 -9 -7s-8 3 -8 7c0 39 -20 105 -45 149c-7 11 -22 18 -37 18c-16 0 -31 -8 -31 -30v-286c44 8 61 88 61 126c0 4 4 7 8 7
s8 -3 9 -7z" />
    <glyph glyph-name="F" unicode="F" horiz-adv-x="241" 
d="M107 335v-285c0 -21 30 -36 30 -45c0 -2 0 -5 -6 -5h-118c-6 0 -6 3 -6 5c0 9 30 24 30 45v257c0 13 -14 34 -20 43c6 9 20 30 20 43v257c0 21 -30 36 -30 45c0 2 0 5 6 5h217c6 0 6 -3 6 -5c0 -47 1 -75 1 -182c-1 -4 -5 -7 -9 -7s-8 3 -8 7c0 39 -20 105 -45 149
c-7 11 -22 18 -37 18c-16 0 -31 -8 -31 -30v-286c44 8 61 88 61 126c0 4 4 7 8 7s8 -3 9 -7v-97c0 -13 14 -34 20 -43c-6 -9 -20 -30 -20 -43v-97c-1 -4 -5 -7 -9 -7s-8 3 -8 7c0 37 -17 118 -61 125z" />
    <glyph glyph-name="G" unicode="G" horiz-adv-x="279" 
d="M243 280v-278c0 -4 -5 -6 -8 -6s-7 2 -9 6c-5 10 -10 27 -18 27c-18 0 -19 -38 -62 -38c-55 0 -121 116 -121 319c-2 13 -14 32 -20 40c6 9 20 30 20 43c9 152 58 316 128 316c13 0 25 -6 36 -16c6 -5 10 -12 19 -12c8 0 13 9 18 19c2 4 6 6 9 6s8 -2 8 -6v-211
c0 -3 -5 -4 -10 -4s-9 1 -9 4c-10 116 -38 195 -71 195c-42 0 -52 -128 -53 -291c0 -13 14 -34 20 -43c-6 -9 -20 -30 -20 -43c1 -164 1 -291 53 -291c16 0 20 37 20 57v207c0 21 -30 36 -30 45c0 2 0 5 6 5h118c6 0 6 -3 6 -5c0 -9 -30 -24 -30 -45z" />
    <glyph glyph-name="H" unicode="H" horiz-adv-x="289" 
d="M252 650v-257c0 -13 14 -34 20 -43c-6 -9 -20 -30 -20 -43v-257c0 -21 30 -36 30 -45c0 -2 0 -5 -6 -5h-118c-6 0 -6 3 -6 5c0 9 30 24 30 45v283h-75v-283c0 -21 30 -36 30 -45c0 -2 0 -5 -6 -5h-118c-6 0 -6 3 -6 5c0 9 30 24 30 45v257c0 13 -14 34 -20 43
c6 9 20 30 20 43v257c0 21 -30 36 -30 45c0 2 0 5 6 5h118c6 0 6 -3 6 -5c0 -9 -30 -24 -30 -45v-283h75v283c0 21 -30 36 -30 45c0 2 0 5 6 5h118c6 0 6 -3 6 -5c0 -9 -30 -24 -30 -45z" />
    <glyph glyph-name="I" unicode="I" horiz-adv-x="140" 
d="M105 650v-257c0 -13 14 -34 20 -43c-6 -9 -20 -30 -20 -43v-257c0 -21 30 -36 30 -45c0 -2 0 -5 -6 -5h-118c-6 0 -6 3 -6 5c0 9 30 24 30 45v257c0 13 -14 34 -20 43c6 9 20 30 20 43v257c0 21 -30 36 -30 45c0 2 0 5 6 5h118c6 0 6 -3 6 -5c0 -9 -30 -24 -30 -45z" />
    <glyph glyph-name="J" unicode="J" horiz-adv-x="221" 
d="M115 120v187c0 13 -14 34 -20 43c6 9 20 30 20 43v257c0 21 -30 36 -30 45c0 2 0 5 6 5h118c6 0 6 -3 6 -5c0 -9 -30 -24 -30 -45v-257c0 -13 14 -34 20 -43c-6 -9 -20 -30 -20 -43v-189c0 -85 -48 -127 -95 -127c-44 0 -87 37 -87 119c0 31 17 57 38 57s38 -26 38 -57
s-17 -57 -38 -57c-4 0 -6 -4 -6 -9c0 -13 13 -23 28 -23c23 0 52 23 52 99z" />
    <glyph glyph-name="K" unicode="K" 
d="M205 657c0 16 -32 24 -32 38c0 2 0 5 6 5h83c6 0 6 -3 6 -5c0 -9 -33 -25 -39 -45l-42 -131l20 -126c0 -13 16 -34 22 -43c-6 -9 -10 -30 -10 -43l39 -257c3 -21 43 -36 43 -45c0 -2 0 -5 -6 -5h-131c-6 0 -6 3 -6 5c0 9 30 24 30 45l-49 318l-31 -100v-218
c0 -21 30 -36 30 -45c0 -2 0 -5 -6 -5h-118c-6 0 -6 3 -6 5c0 9 30 24 30 45v257c0 13 -14 34 -20 43c6 9 20 30 20 43v257c0 21 -30 36 -30 45c0 2 0 5 6 5h118c6 0 6 -3 6 -5c0 -9 -30 -24 -30 -45v-302z" />
    <glyph glyph-name="L" unicode="L" horiz-adv-x="240" 
d="M236 5c0 -2 0 -5 -6 -5h-217c-6 0 -6 3 -6 5c0 9 30 24 30 45v257c0 13 -14 34 -20 43c6 9 20 30 20 43v257c0 21 -30 36 -30 45c0 2 0 5 6 5h118c6 0 6 -3 6 -5c0 -9 -30 -24 -30 -45v-257c0 -13 14 -34 20 -43c-6 -9 -20 -30 -20 -43v-257c0 -15 10 -21 21 -21
c13 0 28 7 34 18c26 43 58 123 58 162c0 4 4 7 8 7s8 -3 9 -7c0 -107 -1 -157 -1 -204z" />
    <glyph glyph-name="M" unicode="M" horiz-adv-x="331" 
d="M209 700h108c6 0 6 -3 6 -5c0 -9 -30 -24 -30 -45v-257c0 -13 14 -34 20 -43c-6 -9 -20 -30 -20 -43v-257c0 -21 30 -36 30 -45c0 -2 0 -5 -6 -5h-118c-6 0 -6 3 -6 5c0 9 30 24 30 45v257c0 13 -14 34 -20 43c6 9 20 30 20 43v214l-72 -607h-23l-65 650v-257
c0 -13 14 -34 20 -43c-6 -9 -20 -30 -20 -43v-257c0 -21 30 -36 30 -45c0 -2 0 -5 -6 -5h-73c-6 0 -6 3 -6 5c0 9 30 24 30 45v257c0 13 -14 34 -20 43c6 9 20 30 20 43v257c0 21 -30 36 -30 45c0 2 0 5 6 5h114l37 -371z" />
    <glyph glyph-name="N" unicode="N" horiz-adv-x="280" 
d="M243 307v-307h-31l-149 554v-161c0 -13 14 -34 20 -43c-6 -9 -20 -30 -20 -43v-257c0 -21 30 -36 30 -45c0 -2 0 -5 -6 -5h-73c-6 0 -6 3 -6 5c0 9 30 24 30 45v257c0 13 -14 34 -20 43c6 9 20 30 20 43v257c0 21 -31 36 -31 45c0 2 0 5 6 5h80l125 -462v69
c0 13 -14 34 -20 43c6 9 20 30 20 43v257c0 21 -30 36 -30 45c0 2 0 5 6 5h73c6 0 6 -3 6 -5c0 -9 -30 -24 -30 -45v-257c0 -13 14 -34 20 -43c-6 -9 -20 -30 -20 -43z" />
    <glyph glyph-name="O" unicode="O" 
d="M153 709c70 0 119 -164 128 -316c0 -13 14 -34 20 -43c-6 -8 -18 -27 -20 -40c-8 -153 -57 -319 -128 -319s-120 166 -128 319c-2 13 -14 32 -20 40c6 9 20 30 20 43c9 152 58 316 128 316zM153 16c42 -1 52 127 53 291c0 13 -14 34 -20 43c6 9 20 30 20 43
c-1 163 -11 291 -53 291s-52 -128 -53 -291c0 -13 14 -34 20 -43c-6 -9 -20 -30 -20 -43c1 -164 11 -291 53 -291z" />
    <glyph glyph-name="P" unicode="P" horiz-adv-x="275" 
d="M7 695c0 2 0 5 6 5h112c70 0 119 -23 128 -145c0 -13 14 -34 20 -43c-6 -8 -18 -27 -20 -40c-8 -103 -57 -148 -128 -148h-18v-274c0 -21 30 -36 30 -45c0 -2 0 -5 -6 -5h-118c-6 0 -6 3 -6 5c0 9 30 24 30 45v257c0 13 -14 34 -20 43c6 9 20 30 20 43v257
c0 21 -30 36 -30 45zM125 675h-18v-326h18c43 0 56 90 56 175c0 77 -14 151 -56 151z" />
    <glyph glyph-name="Q" unicode="Q" 
d="M152 709c70 0 119 -164 128 -316c0 -13 14 -34 20 -43c-6 -8 -18 -27 -20 -40c-5 -97 -26 -198 -59 -260c9 -46 15 -90 33 -90c11 0 12 17 12 48c0 7 4 10 8 10s9 -4 9 -10c0 -61 -7 -142 -56 -142c-41 0 -45 68 -46 135c-9 -6 -19 -10 -29 -10c-71 0 -120 166 -128 319
c-2 13 -14 32 -20 40c6 9 20 30 20 43c9 152 58 316 128 316zM99 307c0 -72 2 -137 8 -187c15 27 31 38 46 38c20 0 33 -13 44 -32c5 49 7 112 8 181c0 13 -14 34 -20 43c6 9 20 30 20 43c-1 163 -11 291 -53 291s-52 -128 -53 -291c0 -13 14 -34 20 -43
c-6 -9 -20 -30 -20 -43zM152 16c12 0 21 10 28 28c-1 49 -6 89 -29 89c-12 0 -24 -19 -35 -67c8 -32 20 -50 36 -50z" />
    <glyph glyph-name="R" unicode="R" horiz-adv-x="296" 
d="M7 695c0 2 0 5 6 5h112c97 0 126 -78 126 -131c0 -13 14 -34 20 -43c-6 -8 -20 -27 -20 -40c0 -30 -33 -94 -98 -109c137 -51 66 -334 104 -334c11 0 12 27 12 58c0 7 4 10 8 10s9 -4 9 -10c0 -61 -10 -110 -56 -110c-113 0 -7 371 -123 376v-317c0 -21 30 -36 30 -45
c0 -2 0 -5 -6 -5h-118c-6 0 -6 3 -6 5c0 9 30 24 30 45v257c0 13 -14 34 -20 43c6 9 20 30 20 43v257c0 21 -30 36 -30 45zM125 675h-18v-276h18c43 0 56 40 56 125c0 77 -14 151 -56 151z" />
    <glyph glyph-name="S" unicode="S" horiz-adv-x="218" 
d="M211 175c0 -103 -40 -183 -90 -183c-29 0 -43 32 -69 32c-9 0 -18 -7 -26 -23c-2 -4 -6 -6 -9 -6s-8 2 -8 6v211c0 3 5 4 10 4s9 -1 9 -4c10 -116 60 -195 93 -195c34 0 49 30 49 74c0 94 -52 157 -94 228c-7 12 -26 24 -35 31c2 5 3 10 3 15c0 12 -35 118 -35 202
c0 80 24 142 90 142c25 0 36 -28 55 -28c8 0 13 9 18 19c2 4 6 6 9 6s8 -2 8 -6v-211c0 -3 -5 -4 -10 -4s-9 1 -9 4c-10 116 -38 195 -71 195c-38 0 -53 -28 -53 -68c0 -93 57 -156 102 -229c6 -10 37 -28 43 -37c-3 -5 -4 -16 -4 -26c0 -22 24 -82 24 -149z" />
    <glyph glyph-name="T" unicode="T" horiz-adv-x="242" 
d="M7 695c0 2 0 5 6 5h216c6 0 6 -3 6 -5c0 -47 1 -107 1 -214c0 -4 -5 -7 -9 -7s-8 3 -8 7c0 39 -14 129 -40 172c-9 15 -14 25 -18 25c-3 0 -5 -8 -5 -28v-257c0 -13 14 -34 20 -43c-6 -9 -20 -30 -20 -43v-257c0 -21 30 -36 30 -45c0 -2 0 -5 -6 -5h-118c-6 0 -6 3 -6 5
c0 9 30 24 30 45v257c0 13 -14 34 -20 43c6 9 20 30 20 43v266c0 13 -3 19 -5 19c-4 0 -9 -10 -18 -25c-26 -43 -40 -133 -40 -172c0 -4 -4 -7 -8 -7s-9 3 -9 7c0 107 1 167 1 214z" />
    <glyph glyph-name="U" unicode="U" horiz-adv-x="287" 
d="M226 200v107c0 13 -14 34 -20 43c6 9 20 30 20 43v257c0 21 -30 36 -30 45c0 2 0 5 6 5h73c6 0 6 -3 6 -5c0 -9 -30 -24 -30 -45v-257c0 -13 14 -34 20 -43c-6 -9 -20 -30 -20 -43v-107c0 -140 -24 -209 -108 -209c-94 0 -107 69 -107 209v107c0 13 -14 34 -20 43
c6 9 20 30 20 43v257c0 21 -30 36 -30 45c0 2 0 5 6 5h118c6 0 6 -3 6 -5c0 -9 -30 -24 -30 -45v-257c0 -13 14 -34 20 -43c-6 -9 -20 -30 -20 -43v-107c0 -123 0 -176 55 -176c53 0 65 65 65 176z" />
    <glyph glyph-name="V" unicode="V" horiz-adv-x="288" 
d="M207 304l-46 -304c-2 -7 -7 -10 -12 -10s-11 3 -12 10l-41 304c-2 13 -16 34 -22 43c6 9 10 40 10 43l-39 260c-3 21 -43 36 -43 45c0 2 0 5 6 5h131c6 0 6 -3 6 -5c0 -9 -30 -24 -30 -45l57 -417l58 417c0 23 -39 33 -39 45c0 2 0 5 6 5h82c6 0 6 -3 6 -5
c0 -14 -30 -29 -30 -45l-36 -260c0 -3 4 -34 10 -43c-6 -9 -20 -30 -22 -43z" />
    <glyph glyph-name="W" unicode="W" horiz-adv-x="401" 
d="M284 233l10 76c0 3 -1 34 -7 43c6 9 17 30 19 43l36 255c0 23 -39 33 -39 45c0 2 0 5 6 5h82c6 0 6 -3 6 -5c0 -14 -30 -29 -30 -45l-36 -257c0 -3 4 -34 10 -43c-6 -9 -20 -30 -22 -43l-46 -307c-2 -7 -7 -10 -12 -10s-11 3 -12 10l-42 441l-64 -441
c-2 -24 -24 -7 -25 0l-41 307c-2 13 -16 34 -22 43c6 9 23 40 23 43l-26 257c-2 21 -48 36 -48 45c0 2 0 5 6 5h121c6 0 6 -3 6 -5c0 -9 -19 -30 -19 -45c0 -9 7 -123 23 -257c2 -13 13 -34 19 -43c-6 -9 -13 -40 -13 -43c2 -32 4 -35 7 -74l43 310l-10 107
c-2 21 -34 36 -34 45c0 2 0 5 6 5h122c6 0 6 -3 6 -5c0 -9 -30 -24 -30 -45z" />
    <glyph glyph-name="X" unicode="X" horiz-adv-x="292" 
d="M234 650l-64 -234l6 -23c3 -13 24 -34 30 -43c-5 -8 -11 -23 -11 -36c0 -2 1 -5 61 -264c0 -21 30 -36 30 -45c0 -2 0 -5 -6 -5h-118c-6 0 -6 3 -6 5c0 9 30 24 30 45l-54 226l-61 -226c0 -21 20 -36 20 -45c0 -2 0 -5 -6 -5h-73c-6 0 -6 3 -6 5c0 9 40 24 40 45l73 268
c-10 12 -28 25 -32 32c7 12 19 25 19 43l-60 257c0 21 -40 36 -40 45c0 2 0 5 6 5h118c6 0 6 -3 6 -5c0 -9 -20 -24 -20 -45l43 -184l50 184c0 21 -30 36 -30 45c0 2 0 5 6 5h73c6 0 6 -3 6 -5c0 -9 -30 -24 -30 -45z" />
    <glyph glyph-name="Y" unicode="Y" horiz-adv-x="276" 
d="M175 307l-5 -24v-233c0 -21 30 -36 30 -45c0 -2 0 -5 -6 -5h-118c-6 0 -6 3 -6 5c0 9 30 24 30 45v225l-5 32c-2 13 -26 34 -32 43c6 8 20 28 20 43l-39 257c0 21 -40 36 -40 45c0 2 0 5 6 5h118c6 0 6 -3 6 -5c0 -9 -20 -24 -20 -45l44 -298l59 298c0 22 -30 29 -30 45
c0 2 0 5 6 5h73c6 0 6 -3 6 -5c0 -9 -26 -24 -30 -45l-49 -246c0 -15 8 -44 11 -54c-6 -9 -26 -30 -29 -43z" />
    <glyph glyph-name="Z" unicode="Z" horiz-adv-x="241" 
d="M99 393c61 261 62 264 62 267c0 11 -9 12 -18 12c-24 0 -39 -8 -45 -19c-26 -43 -44 -103 -44 -142c0 -4 -4 -7 -8 -7s-8 3 -9 7c0 107 1 137 1 184c0 2 0 5 6 5h182c4 0 5 -10 5 -16v-5l-62 -286c0 -18 12 -31 19 -43c-6 -9 -35 -29 -38 -42l-67 -282c21 0 34 -1 45 -1
c13 0 28 11 34 22c26 43 53 113 53 152c0 4 4 7 8 7s8 -3 9 -7c0 -107 -1 -147 -1 -194c0 -2 0 -5 -6 -5h-212c-6 0 -6 3 -6 5l72 302c0 17 -11 33 -20 43c6 9 37 30 40 43z" />
    <glyph glyph-name="a" unicode="a" horiz-adv-x="299" 
d="M81 393l46 307c1 5 9 10 17 10s16 -5 17 -10l41 -307c2 -13 16 -34 22 -43c-6 -9 -10 -40 -10 -43l39 -257c3 -21 43 -36 43 -45c0 -2 0 -5 -6 -5h-131c-6 0 -6 3 -6 5c0 9 30 24 30 45l-20 143h-85l-20 -143c6 -20 39 -36 39 -45c0 -2 0 -5 -6 -5h-82c-6 0 -6 3 -6 5
c0 14 30 29 30 45l36 257c0 3 -4 34 -10 43c6 9 20 30 22 43zM122 504l-39 -277h76z" />
    <glyph glyph-name="b" unicode="b" horiz-adv-x="279" 
d="M13 0c-6 0 -6 3 -6 5c0 9 30 24 30 45v257c0 13 -14 34 -20 43c5 8 18 27 20 40v260c0 21 -30 36 -30 45c0 2 0 5 6 5h112c97 0 126 -78 126 -131c0 -13 14 -34 20 -43c-6 -8 -20 -27 -20 -40c0 -28 -28 -99 -85 -124c44 -14 81 -55 87 -134c2 -13 14 -32 20 -40
c-6 -9 -20 -30 -20 -43c-9 -122 -58 -145 -128 -145h-112zM107 25h18c42 0 56 74 56 151c0 85 -13 168 -56 168h-18v-319zM125 675h-18v-296h18c43 0 56 60 56 145c0 77 -14 151 -56 151z" />
    <glyph glyph-name="c" unicode="c" horiz-adv-x="251" 
d="M188 693c6 -5 10 -12 19 -12c8 0 13 9 18 19c2 4 6 6 9 6s8 -2 8 -6v-211c0 -3 -5 -4 -10 -4s-9 1 -9 4c-10 116 -38 195 -71 195c-42 0 -52 -128 -53 -291c0 -13 14 -34 20 -43c-6 -9 -20 -30 -20 -43c1 -164 11 -291 53 -291c47 0 60 74 67 184h23
c0 -117 -26 -209 -90 -209c-71 0 -120 166 -128 319c-2 13 -14 32 -20 40c6 9 20 30 20 43c9 152 58 316 128 316c13 0 25 -6 36 -16z" />
    <glyph glyph-name="d" unicode="d" horiz-adv-x="294" 
d="M8 695c0 2 0 5 6 5h127c75 0 119 -155 128 -307c0 -13 14 -34 20 -43c-6 -8 -18 -27 -20 -40c-8 -153 -52 -310 -128 -310h-127c-6 0 -6 3 -6 5c0 9 30 24 30 45v257c0 13 -14 34 -20 43c6 9 20 30 20 43v257c0 21 -30 36 -30 45zM141 675h-33v-282c0 -13 14 -34 20 -43
c-6 -9 -20 -30 -20 -43v-282h33c42 0 52 118 53 282c0 13 -14 34 -20 43c6 9 20 30 20 43c-1 163 -11 282 -53 282z" />
    <glyph glyph-name="e" unicode="e" horiz-adv-x="247" 
d="M185 490v-97c0 -13 14 -34 20 -43c-6 -9 -20 -30 -20 -43v-97c-1 -4 -5 -7 -9 -7s-8 3 -8 7c0 37 -17 118 -61 125v-285c0 -15 10 -21 21 -21c13 0 28 7 34 18c26 43 58 123 58 162c0 4 4 7 8 7s8 -3 9 -7c0 -107 -1 -157 -1 -204c0 -2 0 -5 -6 -5h-217c-6 0 -6 3 -6 5
c0 9 30 24 30 45v257c0 13 -14 34 -20 43c6 9 20 30 20 43v257c0 21 -30 36 -30 45c0 2 0 5 6 5h217c6 0 6 -3 6 -5c0 -47 1 -75 1 -182c-1 -4 -5 -7 -9 -7s-8 3 -8 7c0 39 -20 105 -45 149c-7 11 -22 18 -37 18c-16 0 -31 -8 -31 -30v-286c44 8 61 88 61 126c0 4 4 7 8 7
s8 -3 9 -7z" />
    <glyph glyph-name="f" unicode="f" horiz-adv-x="241" 
d="M107 335v-285c0 -21 30 -36 30 -45c0 -2 0 -5 -6 -5h-118c-6 0 -6 3 -6 5c0 9 30 24 30 45v257c0 13 -14 34 -20 43c6 9 20 30 20 43v257c0 21 -30 36 -30 45c0 2 0 5 6 5h217c6 0 6 -3 6 -5c0 -47 1 -75 1 -182c-1 -4 -5 -7 -9 -7s-8 3 -8 7c0 39 -20 105 -45 149
c-7 11 -22 18 -37 18c-16 0 -31 -8 -31 -30v-286c44 8 61 88 61 126c0 4 4 7 8 7s8 -3 9 -7v-97c0 -13 14 -34 20 -43c-6 -9 -20 -30 -20 -43v-97c-1 -4 -5 -7 -9 -7s-8 3 -8 7c0 37 -17 118 -61 125z" />
    <glyph glyph-name="g" unicode="g" horiz-adv-x="279" 
d="M243 280v-278c0 -4 -5 -6 -8 -6s-7 2 -9 6c-5 10 -10 27 -18 27c-18 0 -19 -38 -62 -38c-55 0 -121 116 -121 319c-2 13 -14 32 -20 40c6 9 20 30 20 43c9 152 58 316 128 316c13 0 25 -6 36 -16c6 -5 10 -12 19 -12c8 0 13 9 18 19c2 4 6 6 9 6s8 -2 8 -6v-211
c0 -3 -5 -4 -10 -4s-9 1 -9 4c-10 116 -38 195 -71 195c-42 0 -52 -128 -53 -291c0 -13 14 -34 20 -43c-6 -9 -20 -30 -20 -43c1 -164 1 -291 53 -291c16 0 20 37 20 57v207c0 21 -30 36 -30 45c0 2 0 5 6 5h118c6 0 6 -3 6 -5c0 -9 -30 -24 -30 -45z" />
    <glyph glyph-name="h" unicode="h" horiz-adv-x="289" 
d="M252 650v-257c0 -13 14 -34 20 -43c-6 -9 -20 -30 -20 -43v-257c0 -21 30 -36 30 -45c0 -2 0 -5 -6 -5h-118c-6 0 -6 3 -6 5c0 9 30 24 30 45v283h-75v-283c0 -21 30 -36 30 -45c0 -2 0 -5 -6 -5h-118c-6 0 -6 3 -6 5c0 9 30 24 30 45v257c0 13 -14 34 -20 43
c6 9 20 30 20 43v257c0 21 -30 36 -30 45c0 2 0 5 6 5h118c6 0 6 -3 6 -5c0 -9 -30 -24 -30 -45v-283h75v283c0 21 -30 36 -30 45c0 2 0 5 6 5h118c6 0 6 -3 6 -5c0 -9 -30 -24 -30 -45z" />
    <glyph glyph-name="i" unicode="i" horiz-adv-x="140" 
d="M105 650v-257c0 -13 14 -34 20 -43c-6 -9 -20 -30 -20 -43v-257c0 -21 30 -36 30 -45c0 -2 0 -5 -6 -5h-118c-6 0 -6 3 -6 5c0 9 30 24 30 45v257c0 13 -14 34 -20 43c6 9 20 30 20 43v257c0 21 -30 36 -30 45c0 2 0 5 6 5h118c6 0 6 -3 6 -5c0 -9 -30 -24 -30 -45z" />
    <glyph glyph-name="j" unicode="j" horiz-adv-x="221" 
d="M115 120v187c0 13 -14 34 -20 43c6 9 20 30 20 43v257c0 21 -30 36 -30 45c0 2 0 5 6 5h118c6 0 6 -3 6 -5c0 -9 -30 -24 -30 -45v-257c0 -13 14 -34 20 -43c-6 -9 -20 -30 -20 -43v-189c0 -85 -48 -127 -95 -127c-44 0 -87 37 -87 119c0 31 17 57 38 57s38 -26 38 -57
s-17 -57 -38 -57c-4 0 -6 -4 -6 -9c0 -13 13 -23 28 -23c23 0 52 23 52 99z" />
    <glyph glyph-name="k" unicode="k" 
d="M205 657c0 16 -32 24 -32 38c0 2 0 5 6 5h83c6 0 6 -3 6 -5c0 -9 -33 -25 -39 -45l-42 -131l20 -126c0 -13 16 -34 22 -43c-6 -9 -10 -30 -10 -43l39 -257c3 -21 43 -36 43 -45c0 -2 0 -5 -6 -5h-131c-6 0 -6 3 -6 5c0 9 30 24 30 45l-49 318l-31 -100v-218
c0 -21 30 -36 30 -45c0 -2 0 -5 -6 -5h-118c-6 0 -6 3 -6 5c0 9 30 24 30 45v257c0 13 -14 34 -20 43c6 9 20 30 20 43v257c0 21 -30 36 -30 45c0 2 0 5 6 5h118c6 0 6 -3 6 -5c0 -9 -30 -24 -30 -45v-302z" />
    <glyph glyph-name="l" unicode="l" horiz-adv-x="240" 
d="M236 5c0 -2 0 -5 -6 -5h-217c-6 0 -6 3 -6 5c0 9 30 24 30 45v257c0 13 -14 34 -20 43c6 9 20 30 20 43v257c0 21 -30 36 -30 45c0 2 0 5 6 5h118c6 0 6 -3 6 -5c0 -9 -30 -24 -30 -45v-257c0 -13 14 -34 20 -43c-6 -9 -20 -30 -20 -43v-257c0 -15 10 -21 21 -21
c13 0 28 7 34 18c26 43 58 123 58 162c0 4 4 7 8 7s8 -3 9 -7c0 -107 -1 -157 -1 -204z" />
    <glyph glyph-name="m" unicode="m" horiz-adv-x="331" 
d="M209 700h108c6 0 6 -3 6 -5c0 -9 -30 -24 -30 -45v-257c0 -13 14 -34 20 -43c-6 -9 -20 -30 -20 -43v-257c0 -21 30 -36 30 -45c0 -2 0 -5 -6 -5h-118c-6 0 -6 3 -6 5c0 9 30 24 30 45v257c0 13 -14 34 -20 43c6 9 20 30 20 43v214l-72 -607h-23l-65 650v-257
c0 -13 14 -34 20 -43c-6 -9 -20 -30 -20 -43v-257c0 -21 30 -36 30 -45c0 -2 0 -5 -6 -5h-73c-6 0 -6 3 -6 5c0 9 30 24 30 45v257c0 13 -14 34 -20 43c6 9 20 30 20 43v257c0 21 -30 36 -30 45c0 2 0 5 6 5h114l37 -371z" />
    <glyph glyph-name="n" unicode="n" horiz-adv-x="280" 
d="M243 307v-307h-31l-149 554v-161c0 -13 14 -34 20 -43c-6 -9 -20 -30 -20 -43v-257c0 -21 30 -36 30 -45c0 -2 0 -5 -6 -5h-73c-6 0 -6 3 -6 5c0 9 30 24 30 45v257c0 13 -14 34 -20 43c6 9 20 30 20 43v257c0 21 -31 36 -31 45c0 2 0 5 6 5h80l125 -462v69
c0 13 -14 34 -20 43c6 9 20 30 20 43v257c0 21 -30 36 -30 45c0 2 0 5 6 5h73c6 0 6 -3 6 -5c0 -9 -30 -24 -30 -45v-257c0 -13 14 -34 20 -43c-6 -9 -20 -30 -20 -43z" />
    <glyph glyph-name="o" unicode="o" 
d="M153 709c70 0 119 -164 128 -316c0 -13 14 -34 20 -43c-6 -8 -18 -27 -20 -40c-8 -153 -57 -319 -128 -319s-120 166 -128 319c-2 13 -14 32 -20 40c6 9 20 30 20 43c9 152 58 316 128 316zM153 16c42 -1 52 127 53 291c0 13 -14 34 -20 43c6 9 20 30 20 43
c-1 163 -11 291 -53 291s-52 -128 -53 -291c0 -13 14 -34 20 -43c-6 -9 -20 -30 -20 -43c1 -164 11 -291 53 -291z" />
    <glyph glyph-name="p" unicode="p" horiz-adv-x="275" 
d="M7 695c0 2 0 5 6 5h112c70 0 119 -23 128 -145c0 -13 14 -34 20 -43c-6 -8 -18 -27 -20 -40c-8 -103 -57 -148 -128 -148h-18v-274c0 -21 30 -36 30 -45c0 -2 0 -5 -6 -5h-118c-6 0 -6 3 -6 5c0 9 30 24 30 45v257c0 13 -14 34 -20 43c6 9 20 30 20 43v257
c0 21 -30 36 -30 45zM125 675h-18v-326h18c43 0 56 90 56 175c0 77 -14 151 -56 151z" />
    <glyph glyph-name="q" unicode="q" 
d="M152 709c70 0 119 -164 128 -316c0 -13 14 -34 20 -43c-6 -8 -18 -27 -20 -40c-5 -97 -26 -198 -59 -260c9 -46 15 -90 33 -90c11 0 12 17 12 48c0 7 4 10 8 10s9 -4 9 -10c0 -61 -7 -142 -56 -142c-41 0 -45 68 -46 135c-9 -6 -19 -10 -29 -10c-71 0 -120 166 -128 319
c-2 13 -14 32 -20 40c6 9 20 30 20 43c9 152 58 316 128 316zM99 307c0 -72 2 -137 8 -187c15 27 31 38 46 38c20 0 33 -13 44 -32c5 49 7 112 8 181c0 13 -14 34 -20 43c6 9 20 30 20 43c-1 163 -11 291 -53 291s-52 -128 -53 -291c0 -13 14 -34 20 -43
c-6 -9 -20 -30 -20 -43zM152 16c12 0 21 10 28 28c-1 49 -6 89 -29 89c-12 0 -24 -19 -35 -67c8 -32 20 -50 36 -50z" />
    <glyph glyph-name="r" unicode="r" horiz-adv-x="296" 
d="M7 695c0 2 0 5 6 5h112c97 0 126 -78 126 -131c0 -13 14 -34 20 -43c-6 -8 -20 -27 -20 -40c0 -30 -33 -94 -98 -109c137 -51 66 -334 104 -334c11 0 12 27 12 58c0 7 4 10 8 10s9 -4 9 -10c0 -61 -10 -110 -56 -110c-113 0 -7 371 -123 376v-317c0 -21 30 -36 30 -45
c0 -2 0 -5 -6 -5h-118c-6 0 -6 3 -6 5c0 9 30 24 30 45v257c0 13 -14 34 -20 43c6 9 20 30 20 43v257c0 21 -30 36 -30 45zM125 675h-18v-276h18c43 0 56 40 56 125c0 77 -14 151 -56 151z" />
    <glyph glyph-name="s" unicode="s" horiz-adv-x="218" 
d="M211 175c0 -103 -40 -183 -90 -183c-29 0 -43 32 -69 32c-9 0 -18 -7 -26 -23c-2 -4 -6 -6 -9 -6s-8 2 -8 6v211c0 3 5 4 10 4s9 -1 9 -4c10 -116 60 -195 93 -195c34 0 49 30 49 74c0 94 -52 157 -94 228c-7 12 -26 24 -35 31c2 5 3 10 3 15c0 12 -35 118 -35 202
c0 80 24 142 90 142c25 0 36 -28 55 -28c8 0 13 9 18 19c2 4 6 6 9 6s8 -2 8 -6v-211c0 -3 -5 -4 -10 -4s-9 1 -9 4c-10 116 -38 195 -71 195c-38 0 -53 -28 -53 -68c0 -93 57 -156 102 -229c6 -10 37 -28 43 -37c-3 -5 -4 -16 -4 -26c0 -22 24 -82 24 -149z" />
    <glyph glyph-name="t" unicode="t" horiz-adv-x="242" 
d="M7 695c0 2 0 5 6 5h216c6 0 6 -3 6 -5c0 -47 1 -107 1 -214c0 -4 -5 -7 -9 -7s-8 3 -8 7c0 39 -14 129 -40 172c-9 15 -14 25 -18 25c-3 0 -5 -8 -5 -28v-257c0 -13 14 -34 20 -43c-6 -9 -20 -30 -20 -43v-257c0 -21 30 -36 30 -45c0 -2 0 -5 -6 -5h-118c-6 0 -6 3 -6 5
c0 9 30 24 30 45v257c0 13 -14 34 -20 43c6 9 20 30 20 43v266c0 13 -3 19 -5 19c-4 0 -9 -10 -18 -25c-26 -43 -40 -133 -40 -172c0 -4 -4 -7 -8 -7s-9 3 -9 7c0 107 1 167 1 214z" />
    <glyph glyph-name="u" unicode="u" horiz-adv-x="287" 
d="M226 200v107c0 13 -14 34 -20 43c6 9 20 30 20 43v257c0 21 -30 36 -30 45c0 2 0 5 6 5h73c6 0 6 -3 6 -5c0 -9 -30 -24 -30 -45v-257c0 -13 14 -34 20 -43c-6 -9 -20 -30 -20 -43v-107c0 -140 -24 -209 -108 -209c-94 0 -107 69 -107 209v107c0 13 -14 34 -20 43
c6 9 20 30 20 43v257c0 21 -30 36 -30 45c0 2 0 5 6 5h118c6 0 6 -3 6 -5c0 -9 -30 -24 -30 -45v-257c0 -13 14 -34 20 -43c-6 -9 -20 -30 -20 -43v-107c0 -123 0 -176 55 -176c53 0 65 65 65 176z" />
    <glyph glyph-name="v" unicode="v" horiz-adv-x="288" 
d="M207 304l-46 -304c-2 -7 -7 -10 -12 -10s-11 3 -12 10l-41 304c-2 13 -16 34 -22 43c6 9 10 40 10 43l-39 260c-3 21 -43 36 -43 45c0 2 0 5 6 5h131c6 0 6 -3 6 -5c0 -9 -30 -24 -30 -45l57 -417l58 417c0 23 -39 33 -39 45c0 2 0 5 6 5h82c6 0 6 -3 6 -5
c0 -14 -30 -29 -30 -45l-36 -260c0 -3 4 -34 10 -43c-6 -9 -20 -30 -22 -43z" />
    <glyph glyph-name="w" unicode="w" horiz-adv-x="401" 
d="M284 233l10 76c0 3 -1 34 -7 43c6 9 17 30 19 43l36 255c0 23 -39 33 -39 45c0 2 0 5 6 5h82c6 0 6 -3 6 -5c0 -14 -30 -29 -30 -45l-36 -257c0 -3 4 -34 10 -43c-6 -9 -20 -30 -22 -43l-46 -307c-2 -7 -7 -10 -12 -10s-11 3 -12 10l-42 441l-64 -441
c-2 -24 -24 -7 -25 0l-41 307c-2 13 -16 34 -22 43c6 9 23 40 23 43l-26 257c-2 21 -48 36 -48 45c0 2 0 5 6 5h121c6 0 6 -3 6 -5c0 -9 -19 -30 -19 -45c0 -9 7 -123 23 -257c2 -13 13 -34 19 -43c-6 -9 -13 -40 -13 -43c2 -32 4 -35 7 -74l43 310l-10 107
c-2 21 -34 36 -34 45c0 2 0 5 6 5h122c6 0 6 -3 6 -5c0 -9 -30 -24 -30 -45z" />
    <glyph glyph-name="x" unicode="x" horiz-adv-x="292" 
d="M234 650l-64 -234l6 -23c3 -13 24 -34 30 -43c-5 -8 -11 -23 -11 -36c0 -2 1 -5 61 -264c0 -21 30 -36 30 -45c0 -2 0 -5 -6 -5h-118c-6 0 -6 3 -6 5c0 9 30 24 30 45l-54 226l-61 -226c0 -21 20 -36 20 -45c0 -2 0 -5 -6 -5h-73c-6 0 -6 3 -6 5c0 9 40 24 40 45l73 268
c-10 12 -28 25 -32 32c7 12 19 25 19 43l-60 257c0 21 -40 36 -40 45c0 2 0 5 6 5h118c6 0 6 -3 6 -5c0 -9 -20 -24 -20 -45l43 -184l50 184c0 21 -30 36 -30 45c0 2 0 5 6 5h73c6 0 6 -3 6 -5c0 -9 -30 -24 -30 -45z" />
    <glyph glyph-name="y" unicode="y" horiz-adv-x="276" 
d="M175 307l-5 -24v-233c0 -21 30 -36 30 -45c0 -2 0 -5 -6 -5h-118c-6 0 -6 3 -6 5c0 9 30 24 30 45v225l-5 32c-2 13 -26 34 -32 43c6 8 20 28 20 43l-39 257c0 21 -40 36 -40 45c0 2 0 5 6 5h118c6 0 6 -3 6 -5c0 -9 -20 -24 -20 -45l44 -298l59 298c0 22 -30 29 -30 45
c0 2 0 5 6 5h73c6 0 6 -3 6 -5c0 -9 -26 -24 -30 -45l-49 -246c0 -15 8 -44 11 -54c-6 -9 -26 -30 -29 -43z" />
    <glyph glyph-name="z" unicode="z" horiz-adv-x="241" 
d="M99 393c61 261 62 264 62 267c0 11 -9 12 -18 12c-24 0 -39 -8 -45 -19c-26 -43 -44 -103 -44 -142c0 -4 -4 -7 -8 -7s-8 3 -9 7c0 107 1 137 1 184c0 2 0 5 6 5h182c4 0 5 -10 5 -16v-5l-62 -286c0 -18 12 -31 19 -43c-6 -9 -35 -29 -38 -42l-67 -282c21 0 34 -1 45 -1
c13 0 28 11 34 22c26 43 53 113 53 152c0 4 4 7 8 7s8 -3 9 -7c0 -107 -1 -147 -1 -194c0 -2 0 -5 -6 -5h-212c-6 0 -6 3 -6 5l72 302c0 17 -11 33 -20 43c6 9 37 30 40 43z" />
    <glyph glyph-name="zero" unicode="0" horiz-adv-x="272" 
d="M262 350c-6 -8 -18 -27 -20 -40c-8 -153 -33 -319 -106 -319s-98 166 -106 319c-2 13 -14 32 -20 40c6 8 18 27 20 40c8 153 33 319 106 319s98 -166 106 -319c2 -13 14 -32 20 -40zM120 350c-6 -9 -20 -30 -20 -43c0 -122 1 -291 36 -291s36 169 36 291
c0 13 -14 34 -20 43c6 9 20 30 20 43c0 122 -1 291 -36 291s-36 -169 -36 -291c0 -13 14 -34 20 -43z" />
    <glyph glyph-name="one" unicode="1" horiz-adv-x="207" 
d="M116 700c2 2 5 3 8 3c7 0 16 -5 16 -13c0 -9 1 -19 1 -40v-257c0 -13 14 -34 20 -43c-6 -9 -20 -30 -20 -43v-257c0 -27 40 -28 51 -28c6 0 10 -6 10 -11c0 -6 -4 -11 -12 -11h-168c-8 0 -12 5 -12 11c0 5 4 11 10 11c11 0 51 1 51 28v257c0 13 -14 34 -20 43
c6 9 20 30 20 43v180c0 50 -65 13 -65 41c0 17 59 30 110 86z" />
    <glyph glyph-name="two" unicode="2" horiz-adv-x="258" 
d="M32 535v4c1 125 52 170 100 170c78 0 111 -80 111 -167c0 -56 -21 -136 -33 -159c0 -12 3 -27 5 -33c-5 -8 -39 -26 -46 -37c-76 -127 -113 -193 -113 -210c0 -3 3 -3 15 -3h101c30 0 25 8 45 63c3 7 7 11 11 11c2 0 3 -1 4 -4c0 -107 -3 -113 -3 -160c0 -2 0 -10 -6 -10
h-195c-12 0 -16 8 -16 18c0 4 2 9 2 13c6 76 58 182 102 281c1 2 1 4 1 7c0 9 -3 20 -11 31c6 9 37 29 41 41c18 54 23 106 23 150c0 100 -20 132 -52 132s-62 -46 -62 -69c0 -6 3 -11 14 -12c21 0 38 -26 38 -57s-17 -57 -38 -57s-38 26 -38 57z" />
    <glyph glyph-name="three" unicode="3" horiz-adv-x="257" 
d="M230 231c2 -11 12 -34 18 -43c-8 -11 -13 -27 -21 -43c-2 -4 -17 -154 -110 -154c-51 0 -105 49 -105 144c0 31 17 57 38 57s38 -26 38 -57s-17 -57 -38 -57c-7 -1 -8 -5 -8 -8c0 -17 33 -54 54 -54c35 0 60 74 60 133c0 13 -13 30 -18 39c6 9 19 30 19 43
c0 51 -12 124 -55 124c-8 0 -15 -5 -24 -5c-7 0 -15 13 -15 24c0 8 4 16 15 16c5 0 10 -2 18 -2c38 0 51 57 51 114c0 13 -15 30 -20 38c6 9 19 30 19 43c0 67 -10 100 -45 100c-11 0 -42 -26 -42 -45c0 -4 1 -8 5 -11c21 0 38 -26 38 -57s-17 -57 -38 -57s-38 26 -38 57
c0 45 17 139 83 139c68 0 104 -63 109 -136c1 -12 13 -26 18 -33c-5 -7 -18 -22 -19 -34c-3 -46 -28 -101 -83 -134c51 -22 96 -82 96 -141z" />
    <glyph glyph-name="four" unicode="4" horiz-adv-x="246" 
d="M55 387l89 313h39v-307c0 -13 14 -34 20 -43c-6 -9 -20 -30 -20 -43v-100h42c9 0 13 -10 13 -20s-4 -20 -13 -20h-42v-117c0 -21 30 -36 30 -45c0 -2 0 -5 -6 -5h-118c-6 0 -6 3 -6 5c0 9 30 24 30 45v117h-110v39c30 104 31 106 31 109c0 13 -7 28 -12 35
c6 9 29 24 33 37zM113 503l-85 -296h85v296z" />
    <glyph glyph-name="five" unicode="5" horiz-adv-x="266" 
d="M47 700c26 0 34 -13 87 -13c61 0 84 23 84 22c0 -99 -63 -111 -108 -111c-15 0 -28 1 -36 1c-5 0 -8 -4 -8 -6v-177c17 22 39 39 59 39c70 0 105 -84 112 -189c1 -13 15 -34 21 -43c-6 -9 -20 -31 -21 -43c-6 -73 -36 -189 -120 -189c-51 0 -105 49 -105 144
c0 31 17 57 38 57s38 -26 38 -57s-17 -57 -38 -57c-7 -1 -8 -5 -8 -8c0 -17 33 -54 54 -54c53 0 62 72 64 164c0 13 -14 34 -20 43c5 8 20 27 20 40c-1 91 -10 154 -38 154c-22 0 -67 -25 -69 -91c0 -11 -4 -15 -9 -15c-7 0 -17 10 -17 23c0 11 5 27 14 44v311
c0 2 0 11 6 11z" />
    <glyph glyph-name="six" unicode="6" horiz-adv-x="278" 
d="M176 709c38 0 68 -61 68 -108c0 -29 -21 -52 -38 -52s-38 22 -38 47c0 22 9 45 23 56c4 4 6 9 6 12c0 6 -6 19 -23 20c-48 -1 -69 -130 -74 -298c21 33 44 49 66 49c41 0 77 -55 82 -182c2 -13 14 -32 20 -40c-6 -8 -18 -27 -20 -40c-8 -93 -50 -182 -113 -182
c-73 0 -98 166 -106 319c-2 13 -14 32 -20 40c6 8 18 27 20 40c8 153 61 319 147 319zM151 399c-21 0 -28 -20 -52 -50c-1 -31 -1 -62 -1 -92c0 -134 6 -241 46 -241c21 0 34 51 34 187c0 120 -1 196 -27 196z" />
    <glyph glyph-name="seven" unicode="7" horiz-adv-x="237" 
d="M130 51c-3 -39 -24 -60 -44 -60s-38 20 -38 64c0 23 11 102 46 232c0 19 -4 49 -14 63c6 9 37 29 41 41l61 209h-127c-19 -44 -23 -49 -27 -89c0 -4 -3 -7 -7 -7s-8 3 -9 7c0 107 11 132 11 179c0 2 0 10 6 10h187c12 0 16 -8 16 -18c0 -4 0 -9 -2 -13
c-31 -84 -53 -167 -70 -267c0 -27 4 -44 10 -52c-6 -8 -21 -26 -23 -39c-19 -140 -16 -246 -17 -260z" />
    <glyph glyph-name="eight" unicode="8" horiz-adv-x="275" 
d="M244 132c-12 -95 -64 -141 -114 -141c-54 0 -105 52 -108 154c0 6 -7 24 -11 30c4 6 15 21 16 27c9 51 39 92 70 130c-31 38 -57 90 -63 188c-1 13 -8 31 -14 39c9 13 15 26 20 41c20 59 67 109 101 109c35 0 86 -38 90 -117c1 -12 15 -26 20 -33c-6 -9 -23 -30 -24 -42
c-8 -54 -30 -90 -54 -122c34 -39 65 -86 72 -178c1 -12 14 -33 20 -42c-6 -9 -19 -30 -21 -43zM151 21c18 0 52 32 52 110c0 104 -48 135 -92 184c-24 -37 -42 -83 -42 -156c0 -53 6 -138 82 -138zM79 597c0 -100 38 -141 79 -185c23 38 40 85 40 151c0 80 -34 121 -65 121
c-28 0 -54 -33 -54 -87z" />
    <glyph glyph-name="nine" unicode="9" horiz-adv-x="278" 
d="M102 -9c-38 0 -68 61 -68 108c0 29 21 52 38 52s38 -22 38 -47c0 -22 -9 -45 -23 -56c-4 -4 -6 -9 -6 -12c0 -6 6 -19 23 -20c48 1 69 130 74 298c-21 -33 -44 -49 -66 -49c-41 0 -77 55 -82 182c-2 13 -14 32 -20 40c6 8 18 27 20 40c8 93 50 182 113 182
c73 0 98 -166 106 -319c2 -13 14 -32 20 -40c-6 -8 -18 -27 -20 -40c-8 -153 -61 -319 -147 -319zM127 301c21 0 28 20 52 50c1 31 1 62 1 92c0 134 -6 241 -46 241c-21 0 -34 -51 -34 -187c0 -120 1 -196 27 -196z" />
    <glyph glyph-name="questiondown" unicode="&#xbf;" horiz-adv-x="184" 
d="M177 -15v-4c0 -78 -38 -115 -77 -115c-44 0 -90 46 -90 128c0 63 9 61 9 83c0 13 -2 30 -5 38c6 9 38 30 44 43c19 40 37 91 37 199c0 7 6 10 11 10c6 0 11 -3 11 -10c0 -90 -9 -150 -18 -206c0 -13 3 -28 4 -36c-5 -7 -17 -24 -20 -37c-2 -9 -4 -31 -4 -57
c0 -52 7 -117 31 -117c8 0 27 4 29 24c-21 0 -38 26 -38 57s17 57 38 57s38 -26 38 -57zM144 514c0 -31 -17 -57 -38 -57s-38 26 -38 57s17 57 38 57s38 -26 38 -57z" />
    <glyph glyph-name="exclamdown" unicode="&#xa1;" horiz-adv-x="100" 
d="M60 353c1 -87 5 -147 10 -200c1 -12 14 -31 19 -38c-6 -8 -11 -37 -11 -42c4 -44 11 -83 15 -142c0 -29 -17 -66 -43 -66c-27 0 -43 42 -43 67c4 49 8 91 14 142c0 11 -7 33 -12 41c5 8 19 28 19 39c4 52 7 114 9 199c0 9 6 12 11 12c6 0 12 -4 12 -12zM9 504
c0 31 17 57 38 57s38 -26 38 -57s-17 -57 -38 -57s-38 26 -38 57z" />
    <glyph glyph-name="bracketleft" unicode="[" horiz-adv-x="171" 
d="M11 350c6 9 20 30 20 43v339h136v-25h-66v-314c0 -13 14 -34 20 -43c-6 -9 -20 -30 -20 -43v-358h66v-25h-136v383c0 13 -14 34 -20 43z" />
    <glyph glyph-name="bracketright" unicode="]" horiz-adv-x="171" 
d="M167 350c-6 -9 -20 -30 -20 -43v-383h-136v25h66v358c0 13 -14 34 -20 43c6 9 20 30 20 43v314h-66v25h136v-339c0 -13 14 -34 20 -43z" />
    <glyph glyph-name="peso" unicode="&#x20b1;" horiz-adv-x="329" 
d="M10 552v35h50v63c0 21 -30 36 -30 45c0 2 0 5 6 5h112c63 0 109 -19 124 -113h54v-35h-50c2 -13 14 -32 20 -40c-6 -8 -18 -27 -20 -40h50v-35h-55c-16 -79 -61 -113 -123 -113h-18v-274c0 -21 30 -36 30 -45c0 -2 0 -5 -6 -5h-118c-6 0 -6 3 -6 5c0 9 30 24 30 45v257
c0 13 -14 34 -20 43c6 9 20 30 20 43v44h-50v35h50v80h-50zM204 524c0 9 0 19 -1 28h-73v-80h72c1 17 2 34 2 52zM148 675h-18v-88h70c-6 50 -22 88 -52 88zM148 349c28 0 43 38 50 88h-68v-88h18z" />
    <glyph glyph-name="OE" unicode="&#x152;" horiz-adv-x="426" 
d="M159 709c9 0 19 -3 28 -9h215c6 0 6 -3 6 -5c0 -47 1 -75 1 -182c-1 -4 -5 -7 -9 -7s-8 3 -8 7c0 39 -20 105 -45 149c-7 11 -22 18 -37 18c-16 0 -31 -8 -31 -30v-286c44 8 61 88 61 126c0 4 4 7 8 7s8 -3 9 -7v-97c0 -13 14 -34 20 -43c-6 -9 -20 -30 -20 -43v-97
c-1 -4 -5 -7 -9 -7s-8 3 -8 7c0 37 -17 118 -61 125v-285c0 -15 10 -21 21 -21c13 0 28 7 34 18c26 43 58 123 58 162c0 4 4 7 8 7s8 -3 9 -7c0 -107 -1 -157 -1 -204c0 -2 0 -5 -6 -5h-215c-9 -6 -18 -9 -28 -9c-71 0 -120 166 -128 319c-2 13 -14 32 -20 40
c6 9 20 30 20 43c9 152 58 316 128 316zM159 16c42 -1 52 127 53 291c0 13 -14 34 -20 43c6 9 20 30 20 43c-1 163 -11 291 -53 291s-52 -128 -53 -291c0 -13 14 -34 20 -43c-6 -9 -20 -30 -20 -43c1 -164 11 -291 53 -291z" />
    <glyph glyph-name="oe" unicode="&#x153;" horiz-adv-x="426" 
d="M159 709c9 0 19 -3 28 -9h215c6 0 6 -3 6 -5c0 -47 1 -75 1 -182c-1 -4 -5 -7 -9 -7s-8 3 -8 7c0 39 -20 105 -45 149c-7 11 -22 18 -37 18c-16 0 -31 -8 -31 -30v-286c44 8 61 88 61 126c0 4 4 7 8 7s8 -3 9 -7v-97c0 -13 14 -34 20 -43c-6 -9 -20 -30 -20 -43v-97
c-1 -4 -5 -7 -9 -7s-8 3 -8 7c0 37 -17 118 -61 125v-285c0 -15 10 -21 21 -21c13 0 28 7 34 18c26 43 58 123 58 162c0 4 4 7 8 7s8 -3 9 -7c0 -107 -1 -157 -1 -204c0 -2 0 -5 -6 -5h-215c-9 -6 -18 -9 -28 -9c-71 0 -120 166 -128 319c-2 13 -14 32 -20 40
c6 9 20 30 20 43c9 152 58 316 128 316zM159 16c42 -1 52 127 53 291c0 13 -14 34 -20 43c6 9 20 30 20 43c-1 163 -11 291 -53 291s-52 -128 -53 -291c0 -13 14 -34 20 -43c-6 -9 -20 -30 -20 -43c1 -164 11 -291 53 -291z" />
    <glyph glyph-name="yen" unicode="&#xa5;" horiz-adv-x="282" 
d="M43 161v25h60v35h-60v25h60v29l-5 32c-2 13 -26 34 -32 43c6 8 20 28 20 43l-39 257c0 21 -40 36 -40 45c0 2 0 5 6 5h118c6 0 6 -3 6 -5c0 -9 -20 -24 -20 -45l44 -298l59 298c0 22 -30 29 -30 45c0 2 0 5 6 5h73c6 0 6 -3 6 -5c0 -9 -26 -24 -30 -45l-49 -246
c0 -15 8 -44 11 -54c-6 -9 -26 -30 -29 -43l-5 -24v-37h60v-25h-60v-35h60v-25h-60v-111c0 -21 30 -36 30 -45c0 -2 0 -5 -6 -5h-118c-6 0 -6 3 -6 5c0 9 30 24 30 45v111h-60z" />
    <glyph glyph-name="AE" unicode="&#xc6;" horiz-adv-x="356" 
d="M138 590l-51 -363h51v363zM138 50v143h-56l-20 -143c6 -20 39 -36 39 -45c0 -2 0 -5 -6 -5h-82c-6 0 -6 3 -6 5c0 14 30 29 30 45l36 257c0 3 -4 34 -10 43c6 9 20 30 22 43l46 307h200c6 0 6 -3 6 -5c0 -47 1 -75 1 -182c-1 -4 -5 -7 -9 -7s-8 3 -8 7
c0 39 -20 105 -45 149c-7 11 -22 18 -37 18c-16 0 -31 -8 -31 -30v-286c44 8 61 88 61 126c0 4 4 7 8 7s8 -3 9 -7v-97c0 -13 14 -34 20 -43c-6 -9 -20 -30 -20 -43v-97c-1 -4 -5 -7 -9 -7s-8 3 -8 7c0 37 -17 118 -61 125v-285c0 -15 10 -21 21 -21c13 0 28 7 34 18
c26 43 58 123 58 162c0 4 4 7 8 7s8 -3 9 -7c0 -107 -1 -157 -1 -204c0 -2 0 -5 -6 -5h-217c-6 0 -6 3 -6 5c0 9 30 24 30 45z" />
    <glyph glyph-name="ae" unicode="&#xe6;" horiz-adv-x="356" 
d="M138 590l-51 -363h51v363zM138 50v143h-56l-20 -143c6 -20 39 -36 39 -45c0 -2 0 -5 -6 -5h-82c-6 0 -6 3 -6 5c0 14 30 29 30 45l36 257c0 3 -4 34 -10 43c6 9 20 30 22 43l46 307h200c6 0 6 -3 6 -5c0 -47 1 -75 1 -182c-1 -4 -5 -7 -9 -7s-8 3 -8 7
c0 39 -20 105 -45 149c-7 11 -22 18 -37 18c-16 0 -31 -8 -31 -30v-286c44 8 61 88 61 126c0 4 4 7 8 7s8 -3 9 -7v-97c0 -13 14 -34 20 -43c-6 -9 -20 -30 -20 -43v-97c-1 -4 -5 -7 -9 -7s-8 3 -8 7c0 37 -17 118 -61 125v-285c0 -15 10 -21 21 -21c13 0 28 7 34 18
c26 43 58 123 58 162c0 4 4 7 8 7s8 -3 9 -7c0 -107 -1 -157 -1 -204c0 -2 0 -5 -6 -5h-217c-6 0 -6 3 -6 5c0 9 30 24 30 45z" />
    <glyph glyph-name="grave" unicode="`" horiz-adv-x="71" 
d="M44 725l-42 96h40l17 -95c0 -3 -3 -6 -7 -6c-3 0 -6 1 -8 5z" />
    <glyph glyph-name="acute" unicode="&#xb4;" horiz-adv-x="71" 
d="M69 821l-42 -96c-2 -4 -5 -5 -8 -5c-4 0 -7 3 -7 6l17 95h40z" />
    <glyph glyph-name="Agrave" unicode="&#xc0;" horiz-adv-x="299" 
d="M127 700l-46 -307c-2 -13 -16 -34 -22 -43c6 -9 10 -40 10 -43l-36 -257c0 -16 -30 -31 -30 -45c0 -2 0 -5 6 -5h82c6 0 6 3 6 5c0 9 -33 25 -39 45l20 143h85l20 -143c0 -21 -30 -36 -30 -45c0 -2 0 -5 6 -5h131c6 0 6 3 6 5c0 9 -40 24 -43 45l-39 257c0 3 4 34 10 43
c-6 9 -20 30 -22 43l-41 307c-1 5 -9 10 -17 10s-16 -5 -17 -10zM83 227l39 277l37 -277h-76zM158 725l-42 96h40l17 -95c0 -3 -3 -6 -7 -6c-3 0 -6 1 -8 5z" />
    <glyph glyph-name="Aacute" unicode="&#xc1;" horiz-adv-x="299" 
d="M81 393l46 307c1 5 9 10 17 10s16 -5 17 -10l41 -307c2 -13 16 -34 22 -43c-6 -9 -10 -40 -10 -43l39 -257c3 -21 43 -36 43 -45c0 -2 0 -5 -6 -5h-131c-6 0 -6 3 -6 5c0 9 30 24 30 45l-20 143h-85l-20 -143c6 -20 39 -36 39 -45c0 -2 0 -5 -6 -5h-82c-6 0 -6 3 -6 5
c0 14 30 29 30 45l36 257c0 3 -4 34 -10 43c6 9 20 30 22 43zM122 504l-39 -277h76zM174 821l-42 -96c-2 -4 -5 -5 -8 -5c-4 0 -7 3 -7 6l17 95h40z" />
    <glyph glyph-name="Egrave" unicode="&#xc8;" horiz-adv-x="247" 
d="M185 393v97c-1 4 -5 7 -9 7s-8 -3 -8 -7c0 -38 -17 -118 -61 -126v286c0 22 15 30 31 30c15 0 30 -7 37 -18c25 -44 45 -110 45 -149c0 -4 4 -7 8 -7s8 3 9 7c0 107 -1 135 -1 182c0 2 0 5 -6 5h-217c-6 0 -6 -3 -6 -5c0 -9 30 -24 30 -45v-257c0 -13 -14 -34 -20 -43
c6 -9 20 -30 20 -43v-257c0 -21 -30 -36 -30 -45c0 -2 0 -5 6 -5h217c6 0 6 3 6 5c0 47 1 97 1 204c-1 4 -5 7 -9 7s-8 -3 -8 -7c0 -39 -32 -119 -58 -162c-6 -11 -21 -18 -34 -18c-11 0 -21 6 -21 21v285c44 -7 61 -88 61 -125c0 -4 4 -7 8 -7s8 3 9 7v97c0 13 14 34 20 43
c-6 9 -20 30 -20 43zM137 725l-42 96h40l17 -95c0 -3 -3 -6 -7 -6c-3 0 -6 1 -8 5z" />
    <glyph glyph-name="Eacute" unicode="&#xc9;" horiz-adv-x="247" 
d="M185 490v-97c0 -13 14 -34 20 -43c-6 -9 -20 -30 -20 -43v-97c-1 -4 -5 -7 -9 -7s-8 3 -8 7c0 37 -17 118 -61 125v-285c0 -15 10 -21 21 -21c13 0 28 7 34 18c26 43 58 123 58 162c0 4 4 7 8 7s8 -3 9 -7c0 -107 -1 -157 -1 -204c0 -2 0 -5 -6 -5h-217c-6 0 -6 3 -6 5
c0 9 30 24 30 45v257c0 13 -14 34 -20 43c6 9 20 30 20 43v257c0 21 -30 36 -30 45c0 2 0 5 6 5h217c6 0 6 -3 6 -5c0 -47 1 -75 1 -182c-1 -4 -5 -7 -9 -7s-8 3 -8 7c0 39 -20 105 -45 149c-7 11 -22 18 -37 18c-16 0 -31 -8 -31 -30v-286c44 8 61 88 61 126c0 4 4 7 8 7
s8 -3 9 -7zM152 821l-42 -96c-2 -4 -5 -5 -8 -5c-4 0 -7 3 -7 6l17 95h40z" />
    <glyph glyph-name="Ograve" unicode="&#xd2;" 
d="M153 709c70 0 119 -164 128 -316c0 -13 14 -34 20 -43c-6 -8 -18 -27 -20 -40c-8 -153 -57 -319 -128 -319s-120 166 -128 319c-2 13 -14 32 -20 40c6 9 20 30 20 43c9 152 58 316 128 316zM153 16c42 -1 52 127 53 291c0 13 -14 34 -20 43c6 9 20 30 20 43
c-1 163 -11 291 -53 291s-52 -128 -53 -291c0 -13 14 -34 20 -43c-6 -9 -20 -30 -20 -43c1 -164 11 -291 53 -291zM138 725l-42 96h40l17 -95c0 -3 -3 -6 -7 -6c-3 0 -6 1 -8 5z" />
    <glyph glyph-name="Oacute" unicode="&#xd3;" 
d="M153 709c70 0 119 -164 128 -316c0 -13 14 -34 20 -43c-6 -8 -18 -27 -20 -40c-8 -153 -57 -319 -128 -319s-120 166 -128 319c-2 13 -14 32 -20 40c6 9 20 30 20 43c9 152 58 316 128 316zM153 16c42 -1 52 127 53 291c0 13 -14 34 -20 43c6 9 20 30 20 43
c-1 163 -11 291 -53 291s-52 -128 -53 -291c0 -13 14 -34 20 -43c-6 -9 -20 -30 -20 -43c1 -164 11 -291 53 -291zM210 821l-42 -96c-2 -4 -5 -5 -8 -5c-4 0 -7 3 -7 6l17 95h40z" />
    <glyph glyph-name="Ugrave" unicode="&#xd9;" horiz-adv-x="287" 
d="M226 200v107c0 13 -14 34 -20 43c6 9 20 30 20 43v257c0 21 -30 36 -30 45c0 2 0 5 6 5h73c6 0 6 -3 6 -5c0 -9 -30 -24 -30 -45v-257c0 -13 14 -34 20 -43c-6 -9 -20 -30 -20 -43v-107c0 -140 -24 -209 -108 -209c-94 0 -107 69 -107 209v107c0 13 -14 34 -20 43
c6 9 20 30 20 43v257c0 21 -30 36 -30 45c0 2 0 5 6 5h118c6 0 6 -3 6 -5c0 -9 -30 -24 -30 -45v-257c0 -13 14 -34 20 -43c-6 -9 -20 -30 -20 -43v-107c0 -123 0 -176 55 -176c53 0 65 65 65 176zM175 725l-42 96h40l17 -95c0 -3 -3 -6 -7 -6c-3 0 -6 1 -8 5z" />
    <glyph glyph-name="Uacute" unicode="&#xda;" horiz-adv-x="287" 
d="M226 200v107c0 13 -14 34 -20 43c6 9 20 30 20 43v257c0 21 -30 36 -30 45c0 2 0 5 6 5h73c6 0 6 -3 6 -5c0 -9 -30 -24 -30 -45v-257c0 -13 14 -34 20 -43c-6 -9 -20 -30 -20 -43v-107c0 -140 -24 -209 -108 -209c-94 0 -107 69 -107 209v107c0 13 -14 34 -20 43
c6 9 20 30 20 43v257c0 21 -30 36 -30 45c0 2 0 5 6 5h118c6 0 6 -3 6 -5c0 -9 -30 -24 -30 -45v-257c0 -13 14 -34 20 -43c-6 -9 -20 -30 -20 -43v-107c0 -123 0 -176 55 -176c53 0 65 65 65 176zM190 821l-42 -96c-2 -4 -5 -5 -8 -5c-4 0 -7 3 -7 6l17 95h40z" />
    <glyph glyph-name="Igrave" unicode="&#xcc;" horiz-adv-x="140" 
d="M105 650v-257c0 -13 14 -34 20 -43c-6 -9 -20 -30 -20 -43v-257c0 -21 30 -36 30 -45c0 -2 0 -5 -6 -5h-118c-6 0 -6 3 -6 5c0 9 30 24 30 45v257c0 13 -14 34 -20 43c6 9 20 30 20 43v257c0 21 -30 36 -30 45c0 2 0 5 6 5h118c6 0 6 -3 6 -5c0 -9 -30 -24 -30 -45z
M85 725l-42 96h40l17 -95c0 -3 -3 -6 -7 -6c-3 0 -6 1 -8 5z" />
    <glyph glyph-name="Iacute" unicode="&#xcd;" horiz-adv-x="140" 
d="M105 650v-257c0 -13 14 -34 20 -43c-6 -9 -20 -30 -20 -43v-257c0 -21 30 -36 30 -45c0 -2 0 -5 -6 -5h-118c-6 0 -6 3 -6 5c0 9 30 24 30 45v257c0 13 -14 34 -20 43c6 9 20 30 20 43v257c0 21 -30 36 -30 45c0 2 0 5 6 5h118c6 0 6 -3 6 -5c0 -9 -30 -24 -30 -45z
M99 821l-42 -96c-2 -4 -5 -5 -8 -5c-4 0 -7 3 -7 6l17 95h40z" />
    <glyph glyph-name="dieresis" unicode="&#xa8;" horiz-adv-x="167" 
d="M16 770c0 20 12 38 26 38c13 0 25 -18 25 -38c0 -21 -12 -39 -25 -39c-14 0 -26 18 -26 39zM100 770c0 20 11 38 25 38s26 -18 26 -38c0 -21 -12 -39 -26 -39s-25 18 -25 39z" />
    <glyph glyph-name="Adieresis" unicode="&#xc4;" horiz-adv-x="299" 
d="M127 700l-46 -307c-2 -13 -16 -34 -22 -43c6 -9 10 -40 10 -43l-36 -257c0 -16 -30 -31 -30 -45c0 -2 0 -5 6 -5h82c6 0 6 3 6 5c0 9 -33 25 -39 45l20 143h85l20 -143c0 -21 -30 -36 -30 -45c0 -2 0 -5 6 -5h131c6 0 6 3 6 5c0 9 -40 24 -43 45l-39 257c0 3 4 34 10 43
c-6 9 -20 30 -22 43l-41 307c-1 5 -9 10 -17 10s-16 -5 -17 -10zM83 227l39 277l37 -277h-76zM79 770c0 20 12 38 26 38c13 0 25 -18 25 -38c0 -21 -12 -39 -25 -39c-14 0 -26 18 -26 39zM163 770c0 20 11 38 25 38s26 -18 26 -38c0 -21 -12 -39 -26 -39s-25 18 -25 39z" />
    <glyph glyph-name="Edieresis" unicode="&#xcb;" horiz-adv-x="247" 
d="M185 393v97c-1 4 -5 7 -9 7s-8 -3 -8 -7c0 -38 -17 -118 -61 -126v286c0 22 15 30 31 30c15 0 30 -7 37 -18c25 -44 45 -110 45 -149c0 -4 4 -7 8 -7s8 3 9 7c0 107 -1 135 -1 182c0 2 0 5 -6 5h-217c-6 0 -6 -3 -6 -5c0 -9 30 -24 30 -45v-257c0 -13 -14 -34 -20 -43
c6 -9 20 -30 20 -43v-257c0 -21 -30 -36 -30 -45c0 -2 0 -5 6 -5h217c6 0 6 3 6 5c0 47 1 97 1 204c-1 4 -5 7 -9 7s-8 -3 -8 -7c0 -39 -32 -119 -58 -162c-6 -11 -21 -18 -34 -18c-11 0 -21 6 -21 21v285c44 -7 61 -88 61 -125c0 -4 4 -7 8 -7s8 3 9 7v97c0 13 14 34 20 43
c-6 9 -20 30 -20 43zM56 770c0 20 12 38 26 38c13 0 25 -18 25 -38c0 -21 -12 -39 -25 -39c-14 0 -26 18 -26 39zM140 770c0 20 11 38 25 38s26 -18 26 -38c0 -21 -12 -39 -26 -39s-25 18 -25 39z" />
    <glyph glyph-name="Idieresis" unicode="&#xcf;" horiz-adv-x="140" 
d="M105 650v-257c0 -13 14 -34 20 -43c-6 -9 -20 -30 -20 -43v-257c0 -21 30 -36 30 -45c0 -2 0 -5 -6 -5h-118c-6 0 -6 3 -6 5c0 9 30 24 30 45v257c0 13 -14 34 -20 43c6 9 20 30 20 43v257c0 21 -30 36 -30 45c0 2 0 5 6 5h118c6 0 6 -3 6 -5c0 -9 -30 -24 -30 -45z
M3 770c0 20 12 38 26 38c13 0 25 -18 25 -38c0 -21 -12 -39 -25 -39c-14 0 -26 18 -26 39zM87 770c0 20 11 38 25 38s26 -18 26 -38c0 -21 -12 -39 -26 -39s-25 18 -25 39z" />
    <glyph glyph-name="Odieresis" unicode="&#xd6;" 
d="M153 709c70 0 119 -164 128 -316c0 -13 14 -34 20 -43c-6 -8 -18 -27 -20 -40c-8 -153 -57 -319 -128 -319s-120 166 -128 319c-2 13 -14 32 -20 40c6 9 20 30 20 43c9 152 58 316 128 316zM153 16c42 -1 52 127 53 291c0 13 -14 34 -20 43c6 9 20 30 20 43
c-1 163 -11 291 -53 291s-52 -128 -53 -291c0 -13 14 -34 20 -43c-6 -9 -20 -30 -20 -43c1 -164 11 -291 53 -291zM87 770c0 20 12 38 26 38c13 0 25 -18 25 -38c0 -21 -12 -39 -25 -39c-14 0 -26 18 -26 39zM171 770c0 20 11 38 25 38s26 -18 26 -38c0 -21 -12 -39 -26 -39
s-25 18 -25 39z" />
    <glyph glyph-name="ring" unicode="&#x2da;" horiz-adv-x="101" 
d="M32 778c0 -20 8 -37 18 -37s18 17 18 37s-8 37 -18 37s-18 -17 -18 -37zM12 778c0 32 18 57 38 57s38 -25 38 -57s-18 -57 -38 -57s-38 25 -38 57z" />
    <glyph glyph-name="Aring" unicode="&#xc5;" horiz-adv-x="299" 
d="M127 700l-46 -307c-2 -13 -16 -34 -22 -43c6 -9 10 -40 10 -43l-36 -257c0 -16 -30 -31 -30 -45c0 -2 0 -5 6 -5h82c6 0 6 3 6 5c0 9 -33 25 -39 45l20 143h85l20 -143c0 -21 -30 -36 -30 -45c0 -2 0 -5 6 -5h131c6 0 6 3 6 5c0 9 -40 24 -43 45l-39 257c0 3 4 34 10 43
c-6 9 -20 30 -22 43l-41 307c-1 5 -9 10 -17 10s-16 -5 -17 -10zM83 227l39 277l37 -277h-76zM128 778c0 -20 8 -37 18 -37s18 17 18 37s-8 37 -18 37s-18 -17 -18 -37zM108 778c0 32 18 57 38 57s38 -25 38 -57s-18 -57 -38 -57s-38 25 -38 57z" />
    <glyph glyph-name="Ydieresis" unicode="&#x178;" horiz-adv-x="276" 
d="M170 283l5 24c3 13 23 34 29 43c-3 10 -11 39 -11 54l49 246c4 21 30 36 30 45c0 2 0 5 -6 5h-73c-6 0 -6 -3 -6 -5c0 -16 30 -23 30 -45l-59 -298l-44 298c0 21 20 36 20 45c0 2 0 5 -6 5h-118c-6 0 -6 -3 -6 -5c0 -9 40 -24 40 -45l39 -257c0 -15 -14 -35 -20 -43
c6 -9 30 -30 32 -43l5 -32v-225c0 -21 -30 -36 -30 -45c0 -2 0 -5 6 -5h118c6 0 6 3 6 5c0 9 -30 24 -30 45v233zM93 770c0 20 12 38 26 38c13 0 25 -18 25 -38c0 -21 -12 -39 -25 -39c-14 0 -26 18 -26 39zM177 770c0 20 11 38 25 38s26 -18 26 -38c0 -21 -12 -39 -26 -39
s-25 18 -25 39z" />
    <glyph glyph-name="Yacute" unicode="&#xdd;" horiz-adv-x="276" 
d="M175 307l-5 -24v-233c0 -21 30 -36 30 -45c0 -2 0 -5 -6 -5h-118c-6 0 -6 3 -6 5c0 9 30 24 30 45v225l-5 32c-2 13 -26 34 -32 43c6 8 20 28 20 43l-39 257c0 21 -40 36 -40 45c0 2 0 5 6 5h118c6 0 6 -3 6 -5c0 -9 -20 -24 -20 -45l44 -298l59 298c0 22 -30 29 -30 45
c0 2 0 5 6 5h73c6 0 6 -3 6 -5c0 -9 -26 -24 -30 -45l-49 -246c0 -15 8 -44 11 -54c-6 -9 -26 -30 -29 -43zM190 821l-42 -96c-2 -4 -5 -5 -8 -5c-4 0 -7 3 -7 6l17 95h40z" />
    <glyph glyph-name="Eth" unicode="&#xd0;" horiz-adv-x="319" 
d="M11 315v70h47v265c0 21 -30 36 -30 45c0 2 0 5 6 5h127c75 0 119 -155 128 -307c0 -13 14 -34 20 -43c-6 -8 -18 -27 -20 -40c-8 -153 -52 -310 -128 -310h-127c-6 0 -6 3 -6 5c0 9 30 24 30 45v265h-47zM161 675h-33v-290h43v-70h-43v-290h33c42 0 52 118 53 282
c0 13 -14 34 -20 43c6 9 20 30 20 43c-1 163 -11 282 -53 282z" />
    <glyph glyph-name="circumflex" unicode="&#x2c6;" horiz-adv-x="90" 
d="M50 778l-23 -53c-2 -4 -5 -5 -8 -5c-4 0 -7 3 -7 6l17 95h43l17 -95c0 -3 -3 -6 -7 -6c-3 0 -6 1 -8 5z" />
    <glyph glyph-name="Acircumflex" unicode="&#xc2;" horiz-adv-x="299" 
d="M81 393l46 307c1 5 9 10 17 10s16 -5 17 -10l41 -307c2 -13 16 -34 22 -43c-6 -9 -10 -40 -10 -43l39 -257c3 -21 43 -36 43 -45c0 -2 0 -5 -6 -5h-131c-6 0 -6 3 -6 5c0 9 30 24 30 45l-20 143h-85l-20 -143c6 -20 39 -36 39 -45c0 -2 0 -5 -6 -5h-82c-6 0 -6 3 -6 5
c0 14 30 29 30 45l36 257c0 3 -4 34 -10 43c6 9 20 30 22 43zM122 504l-39 -277h76zM145 778l-23 -53c-2 -4 -5 -5 -8 -5c-4 0 -7 3 -7 6l17 95h43l17 -95c0 -3 -3 -6 -7 -6c-3 0 -6 1 -8 5z" />
    <glyph glyph-name="Ecircumflex" unicode="&#xca;" horiz-adv-x="247" 
d="M185 490v-97c0 -13 14 -34 20 -43c-6 -9 -20 -30 -20 -43v-97c-1 -4 -5 -7 -9 -7s-8 3 -8 7c0 37 -17 118 -61 125v-285c0 -15 10 -21 21 -21c13 0 28 7 34 18c26 43 58 123 58 162c0 4 4 7 8 7s8 -3 9 -7c0 -107 -1 -157 -1 -204c0 -2 0 -5 -6 -5h-217c-6 0 -6 3 -6 5
c0 9 30 24 30 45v257c0 13 -14 34 -20 43c6 9 20 30 20 43v257c0 21 -30 36 -30 45c0 2 0 5 6 5h217c6 0 6 -3 6 -5c0 -47 1 -75 1 -182c-1 -4 -5 -7 -9 -7s-8 3 -8 7c0 39 -20 105 -45 149c-7 11 -22 18 -37 18c-16 0 -31 -8 -31 -30v-286c44 8 61 88 61 126c0 4 4 7 8 7
s8 -3 9 -7zM123 778l-23 -53c-2 -4 -5 -5 -8 -5c-4 0 -7 3 -7 6l17 95h43l17 -95c0 -3 -3 -6 -7 -6c-3 0 -6 1 -8 5z" />
    <glyph glyph-name="Icircumflex" unicode="&#xce;" horiz-adv-x="140" 
d="M105 650v-257c0 -13 14 -34 20 -43c-6 -9 -20 -30 -20 -43v-257c0 -21 30 -36 30 -45c0 -2 0 -5 -6 -5h-118c-6 0 -6 3 -6 5c0 9 30 24 30 45v257c0 13 -14 34 -20 43c6 9 20 30 20 43v257c0 21 -30 36 -30 45c0 2 0 5 6 5h118c6 0 6 -3 6 -5c0 -9 -30 -24 -30 -45z
M69 778l-23 -53c-2 -4 -5 -5 -8 -5c-4 0 -7 3 -7 6l17 95h43l17 -95c0 -3 -3 -6 -7 -6c-3 0 -6 1 -8 5z" />
    <glyph glyph-name="Ocircumflex" unicode="&#xd4;" 
d="M153 709c70 0 119 -164 128 -316c0 -13 14 -34 20 -43c-6 -8 -18 -27 -20 -40c-8 -153 -57 -319 -128 -319s-120 166 -128 319c-2 13 -14 32 -20 40c6 9 20 30 20 43c9 152 58 316 128 316zM153 16c42 -1 52 127 53 291c0 13 -14 34 -20 43c6 9 20 30 20 43
c-1 163 -11 291 -53 291s-52 -128 -53 -291c0 -13 14 -34 20 -43c-6 -9 -20 -30 -20 -43c1 -164 11 -291 53 -291zM154 778l-23 -53c-2 -4 -5 -5 -8 -5c-4 0 -7 3 -7 6l17 95h43l17 -95c0 -3 -3 -6 -7 -6c-3 0 -6 1 -8 5z" />
    <glyph glyph-name="Ucircumflex" unicode="&#xdb;" horiz-adv-x="287" 
d="M226 200v107c0 13 -14 34 -20 43c6 9 20 30 20 43v257c0 21 -30 36 -30 45c0 2 0 5 6 5h73c6 0 6 -3 6 -5c0 -9 -30 -24 -30 -45v-257c0 -13 14 -34 20 -43c-6 -9 -20 -30 -20 -43v-107c0 -140 -24 -209 -108 -209c-94 0 -107 69 -107 209v107c0 13 -14 34 -20 43
c6 9 20 30 20 43v257c0 21 -30 36 -30 45c0 2 0 5 6 5h118c6 0 6 -3 6 -5c0 -9 -30 -24 -30 -45v-257c0 -13 14 -34 20 -43c-6 -9 -20 -30 -20 -43v-107c0 -123 0 -176 55 -176c53 0 65 65 65 176zM162 778l-23 -53c-2 -4 -5 -5 -8 -5c-4 0 -7 3 -7 6l17 95h43l17 -95
c0 -3 -3 -6 -7 -6c-3 0 -6 1 -8 5z" />
    <glyph glyph-name="Udieresis" unicode="&#xdc;" horiz-adv-x="287" 
d="M226 200v107c0 13 -14 34 -20 43c6 9 20 30 20 43v257c0 21 -30 36 -30 45c0 2 0 5 6 5h73c6 0 6 -3 6 -5c0 -9 -30 -24 -30 -45v-257c0 -13 14 -34 20 -43c-6 -9 -20 -30 -20 -43v-107c0 -140 -24 -209 -108 -209c-94 0 -107 69 -107 209v107c0 13 -14 34 -20 43
c6 9 20 30 20 43v257c0 21 -30 36 -30 45c0 2 0 5 6 5h118c6 0 6 -3 6 -5c0 -9 -30 -24 -30 -45v-257c0 -13 14 -34 20 -43c-6 -9 -20 -30 -20 -43v-107c0 -123 0 -176 55 -176c53 0 65 65 65 176zM94 770c0 20 12 38 26 38c13 0 25 -18 25 -38c0 -21 -12 -39 -25 -39
c-14 0 -26 18 -26 39zM178 770c0 20 11 38 25 38s26 -18 26 -38c0 -21 -12 -39 -26 -39s-25 18 -25 39z" />
    <glyph glyph-name="caron" unicode="&#x2c7;" horiz-adv-x="90" 
d="M27 816l23 -53l24 53c2 4 5 5 8 5c4 0 7 -3 7 -6l-17 -95h-43l-17 95c0 3 3 6 7 6c3 0 6 -1 8 -5z" />
    <glyph glyph-name="Zcaron" unicode="&#x17d;" horiz-adv-x="241" 
d="M99 393c-3 -13 -34 -34 -40 -43c9 -10 20 -26 20 -43l-72 -302c0 -2 0 -5 6 -5h212c6 0 6 3 6 5c0 47 1 87 1 194c-1 4 -5 7 -9 7s-8 -3 -8 -7c0 -39 -27 -109 -53 -152c-6 -11 -21 -22 -34 -22c-11 0 -24 1 -45 1l67 282c3 13 32 33 38 42c-7 12 -19 25 -19 43l62 286v5
c0 6 -1 16 -5 16h-182c-6 0 -6 -3 -6 -5c0 -47 -1 -77 -1 -184c1 -4 5 -7 9 -7s8 3 8 7c0 39 18 99 44 142c6 11 21 19 45 19c9 0 18 -1 18 -12c0 -3 -1 -6 -62 -267zM97 816l23 -53l24 53c2 4 5 5 8 5c4 0 7 -3 7 -6l-17 -95h-43l-17 95c0 3 3 6 7 6c3 0 6 -1 8 -5z" />
    <glyph glyph-name="Scaron" unicode="&#x160;" horiz-adv-x="218" 
d="M211 175c0 67 -24 127 -24 149c0 10 1 21 4 26c-6 9 -37 27 -43 37c-45 73 -102 136 -102 229c0 40 15 68 53 68c33 0 61 -79 71 -195c0 -3 4 -4 9 -4s10 1 10 4v211c0 4 -5 6 -8 6s-7 -2 -9 -6c-5 -10 -10 -19 -18 -19c-19 0 -30 28 -55 28c-66 0 -90 -62 -90 -142
c0 -84 35 -190 35 -202c0 -5 -1 -10 -3 -15c9 -7 28 -19 35 -31c42 -71 94 -134 94 -228c0 -44 -15 -74 -49 -74c-33 0 -83 79 -93 195c0 3 -4 4 -9 4s-10 -1 -10 -4v-211c0 -4 5 -6 8 -6s7 2 9 6c8 16 17 23 26 23c26 0 40 -32 69 -32c50 0 90 80 90 183zM85 816l23 -53
l24 53c2 4 5 5 8 5c4 0 7 -3 7 -6l-17 -95h-43l-17 95c0 3 3 6 7 6c3 0 6 -1 8 -5z" />
    <glyph glyph-name="zcaron" unicode="&#x17e;" horiz-adv-x="241" 
d="M99 393c-3 -13 -34 -34 -40 -43c9 -10 20 -26 20 -43l-72 -302c0 -2 0 -5 6 -5h212c6 0 6 3 6 5c0 47 1 87 1 194c-1 4 -5 7 -9 7s-8 -3 -8 -7c0 -39 -27 -109 -53 -152c-6 -11 -21 -22 -34 -22c-11 0 -24 1 -45 1l67 282c3 13 32 33 38 42c-7 12 -19 25 -19 43l62 286v5
c0 6 -1 16 -5 16h-182c-6 0 -6 -3 -6 -5c0 -47 -1 -77 -1 -184c1 -4 5 -7 9 -7s8 3 8 7c0 39 18 99 44 142c6 11 21 19 45 19c9 0 18 -1 18 -12c0 -3 -1 -6 -62 -267zM97 816l23 -53l24 53c2 4 5 5 8 5c4 0 7 -3 7 -6l-17 -95h-43l-17 95c0 3 3 6 7 6c3 0 6 -1 8 -5z" />
    <glyph glyph-name="agrave" unicode="&#xe0;" horiz-adv-x="299" 
d="M127 700l-46 -307c-2 -13 -16 -34 -22 -43c6 -9 10 -40 10 -43l-36 -257c0 -16 -30 -31 -30 -45c0 -2 0 -5 6 -5h82c6 0 6 3 6 5c0 9 -33 25 -39 45l20 143h85l20 -143c0 -21 -30 -36 -30 -45c0 -2 0 -5 6 -5h131c6 0 6 3 6 5c0 9 -40 24 -43 45l-39 257c0 3 4 34 10 43
c-6 9 -20 30 -22 43l-41 307c-1 5 -9 10 -17 10s-16 -5 -17 -10zM83 227l39 277l37 -277h-76zM158 725l-42 96h40l17 -95c0 -3 -3 -6 -7 -6c-3 0 -6 1 -8 5z" />
    <glyph glyph-name="aacute" unicode="&#xe1;" horiz-adv-x="299" 
d="M81 393l46 307c1 5 9 10 17 10s16 -5 17 -10l41 -307c2 -13 16 -34 22 -43c-6 -9 -10 -40 -10 -43l39 -257c3 -21 43 -36 43 -45c0 -2 0 -5 -6 -5h-131c-6 0 -6 3 -6 5c0 9 30 24 30 45l-20 143h-85l-20 -143c6 -20 39 -36 39 -45c0 -2 0 -5 -6 -5h-82c-6 0 -6 3 -6 5
c0 14 30 29 30 45l36 257c0 3 -4 34 -10 43c6 9 20 30 22 43zM122 504l-39 -277h76zM174 821l-42 -96c-2 -4 -5 -5 -8 -5c-4 0 -7 3 -7 6l17 95h40z" />
    <glyph glyph-name="acircumflex" unicode="&#xe2;" horiz-adv-x="299" 
d="M81 393l46 307c1 5 9 10 17 10s16 -5 17 -10l41 -307c2 -13 16 -34 22 -43c-6 -9 -10 -40 -10 -43l39 -257c3 -21 43 -36 43 -45c0 -2 0 -5 -6 -5h-131c-6 0 -6 3 -6 5c0 9 30 24 30 45l-20 143h-85l-20 -143c6 -20 39 -36 39 -45c0 -2 0 -5 -6 -5h-82c-6 0 -6 3 -6 5
c0 14 30 29 30 45l36 257c0 3 -4 34 -10 43c6 9 20 30 22 43zM122 504l-39 -277h76zM145 778l-23 -53c-2 -4 -5 -5 -8 -5c-4 0 -7 3 -7 6l17 95h43l17 -95c0 -3 -3 -6 -7 -6c-3 0 -6 1 -8 5z" />
    <glyph glyph-name="adieresis" unicode="&#xe4;" horiz-adv-x="299" 
d="M127 700l-46 -307c-2 -13 -16 -34 -22 -43c6 -9 10 -40 10 -43l-36 -257c0 -16 -30 -31 -30 -45c0 -2 0 -5 6 -5h82c6 0 6 3 6 5c0 9 -33 25 -39 45l20 143h85l20 -143c0 -21 -30 -36 -30 -45c0 -2 0 -5 6 -5h131c6 0 6 3 6 5c0 9 -40 24 -43 45l-39 257c0 3 4 34 10 43
c-6 9 -20 30 -22 43l-41 307c-1 5 -9 10 -17 10s-16 -5 -17 -10zM83 227l39 277l37 -277h-76zM79 770c0 20 12 38 26 38c13 0 25 -18 25 -38c0 -21 -12 -39 -25 -39c-14 0 -26 18 -26 39zM163 770c0 20 11 38 25 38s26 -18 26 -38c0 -21 -12 -39 -26 -39s-25 18 -25 39z" />
    <glyph glyph-name="aring" unicode="&#xe5;" horiz-adv-x="299" 
d="M127 700l-46 -307c-2 -13 -16 -34 -22 -43c6 -9 10 -40 10 -43l-36 -257c0 -16 -30 -31 -30 -45c0 -2 0 -5 6 -5h82c6 0 6 3 6 5c0 9 -33 25 -39 45l20 143h85l20 -143c0 -21 -30 -36 -30 -45c0 -2 0 -5 6 -5h131c6 0 6 3 6 5c0 9 -40 24 -43 45l-39 257c0 3 4 34 10 43
c-6 9 -20 30 -22 43l-41 307c-1 5 -9 10 -17 10s-16 -5 -17 -10zM83 227l39 277l37 -277h-76zM128 778c0 -20 8 -37 18 -37s18 17 18 37s-8 37 -18 37s-18 -17 -18 -37zM108 778c0 32 18 57 38 57s38 -25 38 -57s-18 -57 -38 -57s-38 25 -38 57z" />
    <glyph glyph-name="egrave" unicode="&#xe8;" horiz-adv-x="247" 
d="M185 393v97c-1 4 -5 7 -9 7s-8 -3 -8 -7c0 -38 -17 -118 -61 -126v286c0 22 15 30 31 30c15 0 30 -7 37 -18c25 -44 45 -110 45 -149c0 -4 4 -7 8 -7s8 3 9 7c0 107 -1 135 -1 182c0 2 0 5 -6 5h-217c-6 0 -6 -3 -6 -5c0 -9 30 -24 30 -45v-257c0 -13 -14 -34 -20 -43
c6 -9 20 -30 20 -43v-257c0 -21 -30 -36 -30 -45c0 -2 0 -5 6 -5h217c6 0 6 3 6 5c0 47 1 97 1 204c-1 4 -5 7 -9 7s-8 -3 -8 -7c0 -39 -32 -119 -58 -162c-6 -11 -21 -18 -34 -18c-11 0 -21 6 -21 21v285c44 -7 61 -88 61 -125c0 -4 4 -7 8 -7s8 3 9 7v97c0 13 14 34 20 43
c-6 9 -20 30 -20 43zM137 725l-42 96h40l17 -95c0 -3 -3 -6 -7 -6c-3 0 -6 1 -8 5z" />
    <glyph glyph-name="eacute" unicode="&#xe9;" horiz-adv-x="247" 
d="M185 490v-97c0 -13 14 -34 20 -43c-6 -9 -20 -30 -20 -43v-97c-1 -4 -5 -7 -9 -7s-8 3 -8 7c0 37 -17 118 -61 125v-285c0 -15 10 -21 21 -21c13 0 28 7 34 18c26 43 58 123 58 162c0 4 4 7 8 7s8 -3 9 -7c0 -107 -1 -157 -1 -204c0 -2 0 -5 -6 -5h-217c-6 0 -6 3 -6 5
c0 9 30 24 30 45v257c0 13 -14 34 -20 43c6 9 20 30 20 43v257c0 21 -30 36 -30 45c0 2 0 5 6 5h217c6 0 6 -3 6 -5c0 -47 1 -75 1 -182c-1 -4 -5 -7 -9 -7s-8 3 -8 7c0 39 -20 105 -45 149c-7 11 -22 18 -37 18c-16 0 -31 -8 -31 -30v-286c44 8 61 88 61 126c0 4 4 7 8 7
s8 -3 9 -7zM152 821l-42 -96c-2 -4 -5 -5 -8 -5c-4 0 -7 3 -7 6l17 95h40z" />
    <glyph glyph-name="ecircumflex" unicode="&#xea;" horiz-adv-x="247" 
d="M185 490v-97c0 -13 14 -34 20 -43c-6 -9 -20 -30 -20 -43v-97c-1 -4 -5 -7 -9 -7s-8 3 -8 7c0 37 -17 118 -61 125v-285c0 -15 10 -21 21 -21c13 0 28 7 34 18c26 43 58 123 58 162c0 4 4 7 8 7s8 -3 9 -7c0 -107 -1 -157 -1 -204c0 -2 0 -5 -6 -5h-217c-6 0 -6 3 -6 5
c0 9 30 24 30 45v257c0 13 -14 34 -20 43c6 9 20 30 20 43v257c0 21 -30 36 -30 45c0 2 0 5 6 5h217c6 0 6 -3 6 -5c0 -47 1 -75 1 -182c-1 -4 -5 -7 -9 -7s-8 3 -8 7c0 39 -20 105 -45 149c-7 11 -22 18 -37 18c-16 0 -31 -8 -31 -30v-286c44 8 61 88 61 126c0 4 4 7 8 7
s8 -3 9 -7zM123 778l-23 -53c-2 -4 -5 -5 -8 -5c-4 0 -7 3 -7 6l17 95h43l17 -95c0 -3 -3 -6 -7 -6c-3 0 -6 1 -8 5z" />
    <glyph glyph-name="edieresis" unicode="&#xeb;" horiz-adv-x="247" 
d="M185 393v97c-1 4 -5 7 -9 7s-8 -3 -8 -7c0 -38 -17 -118 -61 -126v286c0 22 15 30 31 30c15 0 30 -7 37 -18c25 -44 45 -110 45 -149c0 -4 4 -7 8 -7s8 3 9 7c0 107 -1 135 -1 182c0 2 0 5 -6 5h-217c-6 0 -6 -3 -6 -5c0 -9 30 -24 30 -45v-257c0 -13 -14 -34 -20 -43
c6 -9 20 -30 20 -43v-257c0 -21 -30 -36 -30 -45c0 -2 0 -5 6 -5h217c6 0 6 3 6 5c0 47 1 97 1 204c-1 4 -5 7 -9 7s-8 -3 -8 -7c0 -39 -32 -119 -58 -162c-6 -11 -21 -18 -34 -18c-11 0 -21 6 -21 21v285c44 -7 61 -88 61 -125c0 -4 4 -7 8 -7s8 3 9 7v97c0 13 14 34 20 43
c-6 9 -20 30 -20 43zM56 770c0 20 12 38 26 38c13 0 25 -18 25 -38c0 -21 -12 -39 -25 -39c-14 0 -26 18 -26 39zM140 770c0 20 11 38 25 38s26 -18 26 -38c0 -21 -12 -39 -26 -39s-25 18 -25 39z" />
    <glyph glyph-name="igrave" unicode="&#xec;" horiz-adv-x="140" 
d="M105 650v-257c0 -13 14 -34 20 -43c-6 -9 -20 -30 -20 -43v-257c0 -21 30 -36 30 -45c0 -2 0 -5 -6 -5h-118c-6 0 -6 3 -6 5c0 9 30 24 30 45v257c0 13 -14 34 -20 43c6 9 20 30 20 43v257c0 21 -30 36 -30 45c0 2 0 5 6 5h118c6 0 6 -3 6 -5c0 -9 -30 -24 -30 -45z
M85 725l-42 96h40l17 -95c0 -3 -3 -6 -7 -6c-3 0 -6 1 -8 5z" />
    <glyph glyph-name="iacute" unicode="&#xed;" horiz-adv-x="140" 
d="M105 650v-257c0 -13 14 -34 20 -43c-6 -9 -20 -30 -20 -43v-257c0 -21 30 -36 30 -45c0 -2 0 -5 -6 -5h-118c-6 0 -6 3 -6 5c0 9 30 24 30 45v257c0 13 -14 34 -20 43c6 9 20 30 20 43v257c0 21 -30 36 -30 45c0 2 0 5 6 5h118c6 0 6 -3 6 -5c0 -9 -30 -24 -30 -45z
M99 821l-42 -96c-2 -4 -5 -5 -8 -5c-4 0 -7 3 -7 6l17 95h40z" />
    <glyph glyph-name="icircumflex" unicode="&#xee;" horiz-adv-x="140" 
d="M105 650v-257c0 -13 14 -34 20 -43c-6 -9 -20 -30 -20 -43v-257c0 -21 30 -36 30 -45c0 -2 0 -5 -6 -5h-118c-6 0 -6 3 -6 5c0 9 30 24 30 45v257c0 13 -14 34 -20 43c6 9 20 30 20 43v257c0 21 -30 36 -30 45c0 2 0 5 6 5h118c6 0 6 -3 6 -5c0 -9 -30 -24 -30 -45z
M69 778l-23 -53c-2 -4 -5 -5 -8 -5c-4 0 -7 3 -7 6l17 95h43l17 -95c0 -3 -3 -6 -7 -6c-3 0 -6 1 -8 5z" />
    <glyph glyph-name="idieresis" unicode="&#xef;" horiz-adv-x="140" 
d="M105 650v-257c0 -13 14 -34 20 -43c-6 -9 -20 -30 -20 -43v-257c0 -21 30 -36 30 -45c0 -2 0 -5 -6 -5h-118c-6 0 -6 3 -6 5c0 9 30 24 30 45v257c0 13 -14 34 -20 43c6 9 20 30 20 43v257c0 21 -30 36 -30 45c0 2 0 5 6 5h118c6 0 6 -3 6 -5c0 -9 -30 -24 -30 -45z
M3 770c0 20 12 38 26 38c13 0 25 -18 25 -38c0 -21 -12 -39 -25 -39c-14 0 -26 18 -26 39zM87 770c0 20 11 38 25 38s26 -18 26 -38c0 -21 -12 -39 -26 -39s-25 18 -25 39z" />
    <glyph glyph-name="eth" unicode="&#xf0;" horiz-adv-x="319" 
d="M11 315v70h47v265c0 21 -30 36 -30 45c0 2 0 5 6 5h127c75 0 119 -155 128 -307c0 -13 14 -34 20 -43c-6 -8 -18 -27 -20 -40c-8 -153 -52 -310 -128 -310h-127c-6 0 -6 3 -6 5c0 9 30 24 30 45v265h-47zM161 675h-33v-290h43v-70h-43v-290h33c42 0 52 118 53 282
c0 13 -14 34 -20 43c6 9 20 30 20 43c-1 163 -11 282 -53 282z" />
    <glyph glyph-name="ograve" unicode="&#xf2;" 
d="M153 709c70 0 119 -164 128 -316c0 -13 14 -34 20 -43c-6 -8 -18 -27 -20 -40c-8 -153 -57 -319 -128 -319s-120 166 -128 319c-2 13 -14 32 -20 40c6 9 20 30 20 43c9 152 58 316 128 316zM153 16c42 -1 52 127 53 291c0 13 -14 34 -20 43c6 9 20 30 20 43
c-1 163 -11 291 -53 291s-52 -128 -53 -291c0 -13 14 -34 20 -43c-6 -9 -20 -30 -20 -43c1 -164 11 -291 53 -291zM138 725l-42 96h40l17 -95c0 -3 -3 -6 -7 -6c-3 0 -6 1 -8 5z" />
    <glyph glyph-name="oacute" unicode="&#xf3;" 
d="M153 709c70 0 119 -164 128 -316c0 -13 14 -34 20 -43c-6 -8 -18 -27 -20 -40c-8 -153 -57 -319 -128 -319s-120 166 -128 319c-2 13 -14 32 -20 40c6 9 20 30 20 43c9 152 58 316 128 316zM153 16c42 -1 52 127 53 291c0 13 -14 34 -20 43c6 9 20 30 20 43
c-1 163 -11 291 -53 291s-52 -128 -53 -291c0 -13 14 -34 20 -43c-6 -9 -20 -30 -20 -43c1 -164 11 -291 53 -291zM210 821l-42 -96c-2 -4 -5 -5 -8 -5c-4 0 -7 3 -7 6l17 95h40z" />
    <glyph glyph-name="ocircumflex" unicode="&#xf4;" 
d="M153 709c70 0 119 -164 128 -316c0 -13 14 -34 20 -43c-6 -8 -18 -27 -20 -40c-8 -153 -57 -319 -128 -319s-120 166 -128 319c-2 13 -14 32 -20 40c6 9 20 30 20 43c9 152 58 316 128 316zM153 16c42 -1 52 127 53 291c0 13 -14 34 -20 43c6 9 20 30 20 43
c-1 163 -11 291 -53 291s-52 -128 -53 -291c0 -13 14 -34 20 -43c-6 -9 -20 -30 -20 -43c1 -164 11 -291 53 -291zM154 778l-23 -53c-2 -4 -5 -5 -8 -5c-4 0 -7 3 -7 6l17 95h43l17 -95c0 -3 -3 -6 -7 -6c-3 0 -6 1 -8 5z" />
    <glyph glyph-name="odieresis" unicode="&#xf6;" 
d="M153 709c70 0 119 -164 128 -316c0 -13 14 -34 20 -43c-6 -8 -18 -27 -20 -40c-8 -153 -57 -319 -128 -319s-120 166 -128 319c-2 13 -14 32 -20 40c6 9 20 30 20 43c9 152 58 316 128 316zM153 16c42 -1 52 127 53 291c0 13 -14 34 -20 43c6 9 20 30 20 43
c-1 163 -11 291 -53 291s-52 -128 -53 -291c0 -13 14 -34 20 -43c-6 -9 -20 -30 -20 -43c1 -164 11 -291 53 -291zM87 770c0 20 12 38 26 38c13 0 25 -18 25 -38c0 -21 -12 -39 -25 -39c-14 0 -26 18 -26 39zM171 770c0 20 11 38 25 38s26 -18 26 -38c0 -21 -12 -39 -26 -39
s-25 18 -25 39z" />
    <glyph glyph-name="ugrave" unicode="&#xf9;" horiz-adv-x="287" 
d="M226 200v107c0 13 -14 34 -20 43c6 9 20 30 20 43v257c0 21 -30 36 -30 45c0 2 0 5 6 5h73c6 0 6 -3 6 -5c0 -9 -30 -24 -30 -45v-257c0 -13 14 -34 20 -43c-6 -9 -20 -30 -20 -43v-107c0 -140 -24 -209 -108 -209c-94 0 -107 69 -107 209v107c0 13 -14 34 -20 43
c6 9 20 30 20 43v257c0 21 -30 36 -30 45c0 2 0 5 6 5h118c6 0 6 -3 6 -5c0 -9 -30 -24 -30 -45v-257c0 -13 14 -34 20 -43c-6 -9 -20 -30 -20 -43v-107c0 -123 0 -176 55 -176c53 0 65 65 65 176zM175 725l-42 96h40l17 -95c0 -3 -3 -6 -7 -6c-3 0 -6 1 -8 5z" />
    <glyph glyph-name="uacute" unicode="&#xfa;" horiz-adv-x="287" 
d="M226 200v107c0 13 -14 34 -20 43c6 9 20 30 20 43v257c0 21 -30 36 -30 45c0 2 0 5 6 5h73c6 0 6 -3 6 -5c0 -9 -30 -24 -30 -45v-257c0 -13 14 -34 20 -43c-6 -9 -20 -30 -20 -43v-107c0 -140 -24 -209 -108 -209c-94 0 -107 69 -107 209v107c0 13 -14 34 -20 43
c6 9 20 30 20 43v257c0 21 -30 36 -30 45c0 2 0 5 6 5h118c6 0 6 -3 6 -5c0 -9 -30 -24 -30 -45v-257c0 -13 14 -34 20 -43c-6 -9 -20 -30 -20 -43v-107c0 -123 0 -176 55 -176c53 0 65 65 65 176zM190 821l-42 -96c-2 -4 -5 -5 -8 -5c-4 0 -7 3 -7 6l17 95h40z" />
    <glyph glyph-name="ucircumflex" unicode="&#xfb;" horiz-adv-x="287" 
d="M226 200v107c0 13 -14 34 -20 43c6 9 20 30 20 43v257c0 21 -30 36 -30 45c0 2 0 5 6 5h73c6 0 6 -3 6 -5c0 -9 -30 -24 -30 -45v-257c0 -13 14 -34 20 -43c-6 -9 -20 -30 -20 -43v-107c0 -140 -24 -209 -108 -209c-94 0 -107 69 -107 209v107c0 13 -14 34 -20 43
c6 9 20 30 20 43v257c0 21 -30 36 -30 45c0 2 0 5 6 5h118c6 0 6 -3 6 -5c0 -9 -30 -24 -30 -45v-257c0 -13 14 -34 20 -43c-6 -9 -20 -30 -20 -43v-107c0 -123 0 -176 55 -176c53 0 65 65 65 176zM162 778l-23 -53c-2 -4 -5 -5 -8 -5c-4 0 -7 3 -7 6l17 95h43l17 -95
c0 -3 -3 -6 -7 -6c-3 0 -6 1 -8 5z" />
    <glyph glyph-name="udieresis" unicode="&#xfc;" horiz-adv-x="287" 
d="M226 200v107c0 13 -14 34 -20 43c6 9 20 30 20 43v257c0 21 -30 36 -30 45c0 2 0 5 6 5h73c6 0 6 -3 6 -5c0 -9 -30 -24 -30 -45v-257c0 -13 14 -34 20 -43c-6 -9 -20 -30 -20 -43v-107c0 -140 -24 -209 -108 -209c-94 0 -107 69 -107 209v107c0 13 -14 34 -20 43
c6 9 20 30 20 43v257c0 21 -30 36 -30 45c0 2 0 5 6 5h118c6 0 6 -3 6 -5c0 -9 -30 -24 -30 -45v-257c0 -13 14 -34 20 -43c-6 -9 -20 -30 -20 -43v-107c0 -123 0 -176 55 -176c53 0 65 65 65 176zM94 770c0 20 12 38 26 38c13 0 25 -18 25 -38c0 -21 -12 -39 -25 -39
c-14 0 -26 18 -26 39zM178 770c0 20 11 38 25 38s26 -18 26 -38c0 -21 -12 -39 -26 -39s-25 18 -25 39z" />
    <glyph glyph-name="yacute" unicode="&#xfd;" horiz-adv-x="276" 
d="M175 307l-5 -24v-233c0 -21 30 -36 30 -45c0 -2 0 -5 -6 -5h-118c-6 0 -6 3 -6 5c0 9 30 24 30 45v225l-5 32c-2 13 -26 34 -32 43c6 8 20 28 20 43l-39 257c0 21 -40 36 -40 45c0 2 0 5 6 5h118c6 0 6 -3 6 -5c0 -9 -20 -24 -20 -45l44 -298l59 298c0 22 -30 29 -30 45
c0 2 0 5 6 5h73c6 0 6 -3 6 -5c0 -9 -26 -24 -30 -45l-49 -246c0 -15 8 -44 11 -54c-6 -9 -26 -30 -29 -43zM190 821l-42 -96c-2 -4 -5 -5 -8 -5c-4 0 -7 3 -7 6l17 95h40z" />
    <glyph glyph-name="ydieresis" unicode="&#xff;" horiz-adv-x="276" 
d="M170 283l5 24c3 13 23 34 29 43c-3 10 -11 39 -11 54l49 246c4 21 30 36 30 45c0 2 0 5 -6 5h-73c-6 0 -6 -3 -6 -5c0 -16 30 -23 30 -45l-59 -298l-44 298c0 21 20 36 20 45c0 2 0 5 -6 5h-118c-6 0 -6 -3 -6 -5c0 -9 40 -24 40 -45l39 -257c0 -15 -14 -35 -20 -43
c6 -9 30 -30 32 -43l5 -32v-225c0 -21 -30 -36 -30 -45c0 -2 0 -5 6 -5h118c6 0 6 3 6 5c0 9 -30 24 -30 45v233zM93 770c0 20 12 38 26 38c13 0 25 -18 25 -38c0 -21 -12 -39 -25 -39c-14 0 -26 18 -26 39zM177 770c0 20 11 38 25 38s26 -18 26 -38c0 -21 -12 -39 -26 -39
s-25 18 -25 39z" />
    </font>
</defs>
</svg>
